<svg width="40" height="41" viewBox="0 0 40 41" fill="none" xmlns="http://www.w3.org/2000/svg">
<g clip-path="url(#clip0_14_3)">
<path d="M27.608 29.1287C29.0794 31.6821 30.5344 34.2065 31.9884 36.7282C25.5502 41.6573 15.5335 42.2529 8.11832 36.5767C-0.414894 30.0395 -1.8174 18.8851 2.75115 10.8556C8.00564 1.62006 17.8385 -0.422445 24.1695 1.07524C23.9983 1.4472 20.2065 9.31363 20.2065 9.31363C20.2065 9.31363 19.9067 9.33332 19.7372 9.3366C17.8659 9.41592 16.4721 9.85133 14.9783 10.6237C13.3393 11.4789 11.9347 12.7226 10.8874 14.246C9.84 15.7693 9.1817 17.5261 8.97 19.3626C8.74912 21.2251 9.00666 23.1132 9.7183 24.8485C10.32 26.3155 11.1711 27.6185 12.3122 28.7185C14.0626 30.4076 16.1456 31.4535 18.56 31.7997C20.8465 32.1279 23.0454 31.803 25.106 30.7676C25.8789 30.3797 26.5364 29.9514 27.3049 29.3639C27.4028 29.3005 27.4898 29.2201 27.608 29.1287Z" fill="#BECED6"/>
<path d="M27.6222 6.73508C27.2486 6.3675 26.9024 6.02836 26.5577 5.68703C26.3521 5.48354 26.1541 5.27185 25.9435 5.07329C25.868 5.00164 25.7794 4.90372 25.7794 4.90372C25.7794 4.90372 25.851 4.75166 25.8816 4.6893C26.2848 3.88028 26.9166 3.28897 27.666 2.81855C28.4946 2.29441 29.4601 2.02773 30.4404 2.05221C31.6946 2.07682 32.8608 2.38916 33.8449 3.23045C34.5713 3.85129 34.9438 4.63897 35.0095 5.57927C35.1189 7.16557 34.4625 8.38046 33.1589 9.22831C32.3931 9.72718 31.5672 10.1128 30.739 10.5696C30.2823 10.8217 29.8917 11.0433 29.4454 11.4995C29.0526 11.9573 29.0335 12.3889 29.0335 12.3889L34.9668 12.3812V15.0238H25.8083C25.8083 15.0238 25.8083 14.8433 25.8083 14.7683C25.7733 13.4698 25.9249 12.2478 26.5195 11.0684C27.0665 9.98645 27.9165 9.1944 28.9377 8.58449C29.7243 8.11462 30.5525 7.71476 31.3407 7.24707C31.827 6.9588 32.1705 6.53597 32.1678 5.92278C32.1678 5.39657 31.7849 4.92888 31.2379 4.78283C29.9481 4.43494 28.6352 4.99015 27.9526 6.17058C27.853 6.34288 27.7513 6.51409 27.6222 6.73508Z" fill="#BECED6"/>
<path d="M39.0988 26.3199L34.0987 17.6849H24.204L19.1716 26.4091H29.139L34.0577 35.003L39.0988 26.3199Z" fill="#BECED6"/>
</g>
<defs>
<clipPath id="clip0_14_3">
<rect width="38.9076" height="40" fill="white" transform="translate(0.191162 0.630005)"/>
</clipPath>
</defs>
</svg>
