<svg width="28" height="28" viewBox="0 0 28 28" fill="none" xmlns="http://www.w3.org/2000/svg">
<path d="M20.5921 14.6342C17.7893 14.6342 15.5175 16.9061 15.5175 19.7087C15.5175 22.5115 17.7893 24.7835 20.5921 24.7835C23.3947 24.7835 25.6667 22.5115 25.6667 19.7087C25.6667 16.9061 23.3947 14.6342 20.5921 14.6342ZM7.40791 14.6346C4.60539 14.6346 2.33334 16.9061 2.33334 19.709C2.33334 22.5115 4.60539 24.7835 7.40791 24.7835C10.2106 24.7835 12.4828 22.5115 12.4828 19.709C12.4828 16.9061 10.2106 14.6346 7.40791 14.6346ZM19.0744 8.29091C19.0744 11.0935 16.8027 13.3659 14.0001 13.3659C11.1974 13.3659 8.92549 11.0935 8.92549 8.29091C8.92549 5.48847 11.1974 3.21643 14.0001 3.21643C16.8027 3.21643 19.0744 5.48847 19.0744 8.29091Z" fill="url(#paint0_radial_24_2)"/>
<defs>
<radialGradient id="paint0_radial_24_2" cx="0" cy="0" r="1" gradientUnits="userSpaceOnUse" gradientTransform="translate(14 15.0033) scale(15.4615 14.2911)">
<stop stop-color="#FFB900"/>
<stop offset="0.6" stop-color="#F95D8F"/>
<stop offset="0.9991" stop-color="#F95353"/>
</radialGradient>
</defs>
</svg>
