<svg width="28" height="28" viewBox="0 0 28 28" fill="none" xmlns="http://www.w3.org/2000/svg">
<path d="M3.18182 19.402C2.93516 19.7899 2.65325 20.2483 2.44182 20.6009C2.2304 20.9535 2.33611 21.4119 2.68849 21.6234L7.51604 24.5853C7.86842 24.7968 8.32649 24.6911 8.53795 24.3384C8.71411 24.0211 8.96076 23.598 9.24269 23.1396C11.1455 20.0014 13.0836 20.354 16.5368 22.0112L21.3292 24.2679C21.7168 24.4443 22.1396 24.2679 22.3158 23.9154L24.6063 18.732C24.7825 18.3795 24.6063 17.9211 24.254 17.7447C23.2321 17.2864 21.2234 16.3344 19.4616 15.4528C12.9427 12.3147 7.41034 12.5262 3.18182 19.402Z" fill="url(#paint0_linear_24_4)"/>
<path d="M24.8182 7.62515C25.0649 7.23729 25.3468 6.7789 25.5582 6.42631C25.7697 6.07369 25.6639 5.61531 25.3115 5.40375L20.484 2.44186C20.1315 2.2303 19.6734 2.33609 19.4621 2.68868C19.2859 3.00604 19.0392 3.42916 18.7573 3.88755C16.8544 7.02573 14.9164 6.67313 11.4631 5.01588L6.67078 2.75921C6.28316 2.58291 5.86031 2.75921 5.68413 3.11182L3.39367 8.29506C3.21749 8.64768 3.39367 9.10607 3.74605 9.28244C4.76794 9.74083 6.77649 10.6928 8.5384 11.5743C15.0574 14.6772 20.5897 14.5009 24.8182 7.62515Z" fill="url(#paint1_linear_24_4)"/>
<defs>
<linearGradient id="paint0_linear_24_4" x1="24.4904" y1="26.1204" x2="9.90914" y2="17.747" gradientUnits="userSpaceOnUse">
<stop stop-color="#0052CC"/>
<stop offset="0.9182" stop-color="#2380FB"/>
<stop offset="1" stop-color="#2684FF"/>
</linearGradient>
<linearGradient id="paint1_linear_24_4" x1="3.50944" y1="0.897594" x2="18.0909" y2="9.27106" gradientUnits="userSpaceOnUse">
<stop stop-color="#0052CC"/>
<stop offset="0.9182" stop-color="#2380FB"/>
<stop offset="1" stop-color="#2684FF"/>
</linearGradient>
</defs>
</svg>
