<svg width="28" height="28" viewBox="0 0 28 28" fill="none" xmlns="http://www.w3.org/2000/svg">
<g clip-path="url(#clip0_24_9)">
<path d="M12.6 20.7375C13.0375 20.7375 13.4312 21.0875 13.4312 21.5687C13.4312 22.0062 13.0812 22.4 12.6 22.4C12.1625 22.4 11.7687 22.05 11.7687 21.5687C11.7687 21.0875 12.1625 20.7375 12.6 20.7375ZM25.4625 15.6625C25.025 15.6625 24.6312 15.3125 24.6312 14.8312C24.6312 14.3937 24.9812 14 25.4625 14C25.9 14 26.2937 14.35 26.2937 14.8312C26.2937 15.2687 25.9 15.6625 25.4625 15.6625ZM25.4625 12.2937C24.0625 12.2937 22.925 13.4312 22.925 14.8312C22.925 15.0937 22.9687 15.3562 23.0562 15.6187L14.7 20.0812C14.2187 19.3812 13.4312 18.9875 12.6 18.9875C11.6375 18.9875 10.7625 19.5562 10.325 20.3875L2.79999 16.45C2.01249 16.0125 1.39999 14.7437 1.48749 13.5187C1.53124 12.9062 1.74999 12.425 2.05624 12.25C2.27499 12.1187 2.49374 12.1625 2.79999 12.2937L2.84374 12.3375C4.85624 13.3875 11.375 16.8 11.6375 16.9312C12.075 17.1062 12.2937 17.1937 13.0375 16.8437L26.5125 9.84374C26.7312 9.75624 26.95 9.58124 26.95 9.27499C26.95 8.88124 26.5562 8.70624 26.5562 8.70624C25.7687 8.35624 24.5875 7.78749 23.45 7.26249C21 6.12499 18.2 4.81249 16.975 4.15624C15.925 3.58749 15.05 4.06874 14.9187 4.15624L14.6125 4.28749C9.05624 7.08749 1.70624 10.7187 1.26874 10.9812C0.52499 11.4187 0.0437401 12.3375 -9.9329e-06 13.475C-0.0875099 15.2687 0.83124 17.15 2.14374 17.8062L10.1062 21.9187C10.2812 23.1437 11.375 24.1062 12.6 24.1062C14 24.1062 15.0937 23.0125 15.1375 21.6125L23.8875 16.8875C24.325 17.2375 24.8937 17.4125 25.4625 17.4125C26.8625 17.4125 28 16.275 28 14.875C28 13.4312 26.8625 12.2937 25.4625 12.2937Z" fill="#4285FD"/>
</g>
<defs>
<clipPath id="clip0_24_9">
<rect width="28" height="28" fill="white"/>
</clipPath>
</defs>
</svg>
