<svg width="28" height="28" viewBox="0 0 28 28" fill="none" xmlns="http://www.w3.org/2000/svg">
<path fill-rule="evenodd" clip-rule="evenodd" d="M14 2.27606C7.55431 2.27606 2.33331 7.49706 2.33331 13.9427C2.33331 19.0992 5.6779 23.4679 10.3116 25.0149C10.8917 25.1224 11.1066 24.7643 11.1066 24.4492C11.1066 24.1698 11.0994 23.4394 11.0923 22.4653C7.84795 23.1672 7.16041 20.9041 7.16041 20.9041C6.63043 19.5576 5.86411 19.1923 5.86411 19.1923C4.80415 18.469 5.94289 18.4834 5.94289 18.4834C7.11028 18.5693 7.73336 19.6865 7.73336 19.6865C8.77182 21.4698 10.462 20.9541 11.1281 20.6534C11.2355 19.9014 11.5363 19.3858 11.8658 19.0921C9.28031 18.8056 6.5588 17.803 6.5588 13.3339C6.5588 12.0591 7.01 11.0207 7.762 10.2042C7.64025 9.90344 7.23918 8.72173 7.86943 7.11747C7.86943 7.11747 8.8506 6.80235 11.0779 8.3135C12.0089 8.05568 13.0045 7.92676 14 7.9196C14.9883 7.92676 15.991 8.05568 16.922 8.3135C19.1493 6.80235 20.1306 7.11747 20.1306 7.11747C20.7679 8.72173 20.3668 9.9106 20.2451 10.2042C20.9899 11.0207 21.4411 12.0591 21.4411 13.3339C21.4411 17.8173 18.7125 18.7985 16.1127 19.0921C16.5281 19.4502 16.9077 20.1664 16.9077 21.255C16.9077 22.8162 16.8933 24.0696 16.8933 24.4563C16.8933 24.7715 17.1011 25.1295 17.6955 25.0149C22.3292 23.4679 25.6666 19.0992 25.6666 13.9499C25.6666 7.49706 20.4457 2.27606 14 2.27606Z" fill="#191717"/>
</svg>
