<svg width="28" height="28" viewBox="0 0 28 28" fill="none" xmlns="http://www.w3.org/2000/svg">
<path d="M25.6667 9.66669L22.889 11.1945L20.1111 13.8333V22.8889H24C24.9206 22.8889 25.6667 22.1428 25.6667 21.2223V9.66669Z" fill="#4CAF50"/>
<path d="M2.33331 9.66669L4.34109 10.6167L7.88886 13.8333V22.8889H3.99998C3.07942 22.8889 2.33331 22.1428 2.33331 21.2223V9.66669Z" fill="#1E88E5"/>
<path d="M20.1111 6.88885L14 11.4722L7.88887 6.88885L7.33331 10.1111L7.88887 13.8333L14 18.4166L20.1111 13.8333L20.6667 10.1111L20.1111 6.88885Z" fill="#E53935"/>
<path d="M2.33331 7.49887V9.66664L7.88886 13.8333V6.88886L6.15332 5.58831C5.73998 5.2783 5.23775 5.11108 4.72109 5.11108C3.4022 5.11108 2.33331 6.17997 2.33331 7.49887Z" fill="#C62828"/>
<path d="M25.6667 7.49887V9.66664L20.1111 13.8333V6.88886L21.8467 5.58831C22.26 5.2783 22.7623 5.11108 23.2789 5.11108C24.5978 5.11108 25.6667 6.17997 25.6667 7.49887Z" fill="#FBC02D"/>
</svg>
