<svg width="28" height="28" viewBox="0 0 28 28" fill="none" xmlns="http://www.w3.org/2000/svg">
<path d="M4.11845 21.5813L5.15977 23.3799C5.37615 23.7586 5.6872 24.0561 6.05234 24.2725L9.77137 17.8352H2.33331C2.33331 18.2544 2.4415 18.6737 2.65788 19.0524L4.11845 21.5813Z" fill="#0066DA"/>
<path d="M14.1395 10.2613L10.4205 3.82397C10.0554 4.04036 9.74433 4.33788 9.52795 4.71654L2.65788 16.6174C2.44549 16.988 2.33359 17.4075 2.33331 17.8346H9.77137L14.1395 10.2613Z" fill="#00AC47"/>
<path d="M22.2268 24.2725C22.5919 24.0561 22.903 23.7586 23.1193 23.3799L23.5521 22.6362L25.6212 19.0524C25.8376 18.6737 25.9458 18.2544 25.9458 17.8352H18.5072L20.09 20.9457L22.2268 24.2725Z" fill="#EA4335"/>
<path d="M14.1395 10.2619L17.8586 3.82457C17.4935 3.60818 17.0742 3.5 16.6415 3.5H11.6377C11.2049 3.5 10.7857 3.62172 10.4205 3.82457L14.1395 10.2619Z" fill="#00832D"/>
<path d="M18.5078 17.8352H9.77146L6.05243 24.2725C6.41756 24.4888 6.8368 24.5971 7.26957 24.5971H21.0097C21.4425 24.5971 21.8617 24.4754 22.2268 24.2725L18.5078 17.8352Z" fill="#2684FC"/>
<path d="M22.1861 10.6676L18.7511 4.71716C18.5348 4.33849 18.2237 4.04097 17.8586 3.82458L14.1395 10.2619L18.5078 17.8352H25.9323C25.9323 17.416 25.824 16.9967 25.6077 16.6181L22.1861 10.6676Z" fill="#FFBA00"/>
</svg>
