<svg width="28" height="28" viewBox="0 0 28 28" fill="none" xmlns="http://www.w3.org/2000/svg">
<path d="M22.4624 15.1597C22.4624 15.3654 22.3813 15.5625 22.237 15.708C22.0928 15.8534 21.897 15.9351 21.6931 15.9351C21.4891 15.9351 21.2934 15.8534 21.1491 15.708C21.0048 15.5625 20.9238 15.3654 20.9238 15.1597V8.23335C20.9238 8.02772 21.0048 7.83052 21.1491 7.68512C21.2934 7.53974 21.4891 7.45804 21.6931 7.45804C21.897 7.45804 22.0928 7.53974 22.237 7.68512C22.3813 7.83052 22.4624 8.02772 22.4624 8.23335V15.1597ZM22.1954 19.9589C22.0936 20.0614 19.2325 22.4642 13.9873 22.4642C8.74196 22.4642 5.89998 20.0743 5.77916 19.9717C5.70302 19.907 5.64034 19.8279 5.59464 19.7386C5.54895 19.6495 5.52116 19.5521 5.5129 19.4521C5.50462 19.3521 5.51604 19.2514 5.54646 19.1559C5.57686 19.0603 5.62569 18.9718 5.69014 18.8952C5.82292 18.7404 6.01108 18.6448 6.21353 18.6291C6.41603 18.6136 6.6164 18.6793 6.77101 18.8119C6.8155 18.844 9.37138 20.9328 13.9809 20.9328C18.5904 20.9328 21.1653 18.8312 21.1909 18.8119C21.3471 18.6805 21.5482 18.6156 21.7512 18.6312C21.9542 18.6467 22.1432 18.7415 22.278 18.8952C22.4077 19.0478 22.4724 19.2457 22.4582 19.4461C22.4439 19.6465 22.3517 19.833 22.2017 19.9653L22.1954 19.9589ZM5.50575 8.23335C5.51728 8.02706 5.60933 7.83378 5.76182 7.69571C5.91431 7.55763 6.11485 7.48602 6.31957 7.49648C6.50938 7.50734 6.68848 7.58866 6.82234 7.72473C6.95615 7.86081 7.03526 8.04197 7.04438 8.23335V15.147C7.04438 15.3525 6.96334 15.5497 6.81908 15.6952C6.67478 15.8406 6.47913 15.9222 6.27509 15.9222C6.07105 15.9222 5.87536 15.8406 5.73109 15.6952C5.58682 15.5497 5.50575 15.3525 5.50575 15.147V8.23335ZM9.36505 6.69558C9.37654 6.48929 9.46859 6.296 9.62109 6.15792C9.77358 6.01985 9.97411 5.94824 10.1788 5.95872C10.3687 5.96957 10.5477 6.0509 10.6816 6.18693C10.8154 6.323 10.8945 6.5042 10.9036 6.69558V16.9474C10.9036 17.1531 10.8226 17.3502 10.6783 17.4956C10.534 17.6411 10.3384 17.7227 10.1344 17.7227C9.93031 17.7227 9.73463 17.6411 9.59036 17.4956C9.4461 17.3502 9.36505 17.1531 9.36505 16.9474V6.69558ZM13.2434 6.31114C13.2434 6.10551 13.3244 5.90831 13.4687 5.76291C13.613 5.61749 13.8087 5.53583 14.0127 5.53583C14.2168 5.53583 14.4124 5.61749 14.5567 5.76291C14.7009 5.90831 14.782 6.10551 14.782 6.31114V17.46C14.782 17.6656 14.7009 17.8629 14.5567 18.0082C14.4124 18.1536 14.2168 18.2353 14.0127 18.2353C13.8087 18.2353 13.613 18.1536 13.4687 18.0082C13.3244 17.8629 13.2434 17.6656 13.2434 17.46V6.31114ZM17.0582 6.69558C17.0582 6.48995 17.1391 6.29275 17.2835 6.14735C17.4278 6.00195 17.6234 5.92027 17.8275 5.92027C18.0315 5.92027 18.2272 6.00195 18.3714 6.14735C18.5157 6.29275 18.5968 6.48995 18.5968 6.69558V16.9474C18.5968 17.1531 18.5157 17.3502 18.3714 17.4956C18.2272 17.6411 18.0315 17.7227 17.8275 17.7227C17.6234 17.7227 17.4278 17.6411 17.2835 17.4956C17.1391 17.3502 17.0582 17.1531 17.0582 16.9474V6.69558ZM22.6722 2.46668H5.32777C4.94984 2.46415 4.57511 2.53677 4.22507 2.68038C3.87506 2.824 3.55656 3.03577 3.28784 3.3036C3.01911 3.57143 2.80546 3.89002 2.6591 4.24118C2.51275 4.59233 2.43654 4.96914 2.43488 5.35001V22.65C2.43654 23.0308 2.51275 23.4077 2.6591 23.7588C2.80546 24.11 3.01911 24.4286 3.28784 24.6965C3.55656 24.9642 3.87506 25.176 4.22507 25.3196C4.57511 25.4632 4.94984 25.5359 5.32777 25.5333H22.6722C23.0496 25.5359 23.4237 25.4635 23.7734 25.3203C24.123 25.177 24.4412 24.9659 24.7099 24.6987C24.9786 24.4315 25.1923 24.1136 25.3391 23.7633C25.4857 23.4128 25.5626 23.0368 25.565 22.6564V5.35001C25.5634 4.96968 25.4875 4.59341 25.3414 4.24266C25.1954 3.89196 24.9824 3.57362 24.7143 3.30587C24.4463 3.03813 24.1286 2.82622 23.7792 2.68224C23.4299 2.53823 23.056 2.465 22.6786 2.46668" fill="black"/>
</svg>
