<svg width="28" height="28" viewBox="0 0 28 28" fill="none" xmlns="http://www.w3.org/2000/svg">
<path d="M25.7356 13.4296L14.8115 2.50561L13.7527 1.44672L5.5295 9.66988L1.76977 13.4296C1.58152 13.6181 1.47577 13.8736 1.47577 14.14C1.47577 14.4065 1.58152 14.662 1.76977 14.8504L9.28254 22.3632L13.7527 26.8333L21.9758 18.6102L22.1032 18.4828L25.7356 14.8504C25.9238 14.662 26.0296 14.4065 26.0296 14.14C26.0296 13.8736 25.9238 13.6181 25.7356 13.4296ZM13.7527 17.893L9.99965 14.14L13.7527 10.387L17.5057 14.14L13.7527 17.893Z" fill="#2684FF"/>
<path d="M13.7527 10.387C12.5723 9.20645 11.907 7.60685 11.902 5.93745C11.897 4.26805 12.5526 2.66446 13.7258 1.47687L5.51276 9.68663L9.98289 14.1568L13.7527 10.387Z" fill="url(#paint0_linear_24_31)"/>
<path d="M17.5158 14.1299L13.7527 17.893C14.34 18.48 14.8058 19.1768 15.1236 19.9438C15.4414 20.7108 15.6051 21.5329 15.6051 22.3631C15.6051 23.1934 15.4414 24.0155 15.1236 24.7825C14.8058 25.5495 14.34 26.2464 13.7527 26.8333L21.986 18.6L17.5158 14.1299Z" fill="url(#paint1_linear_24_31)"/>
<defs>
<linearGradient id="paint0_linear_24_31" x1="13.0825" y1="6.59038" x2="7.84164" y2="11.8312" gradientUnits="userSpaceOnUse">
<stop offset="0.18" stop-color="#0052CC"/>
<stop offset="1" stop-color="#2684FF"/>
</linearGradient>
<linearGradient id="paint1_linear_24_31" x1="333.037" y1="779.889" x2="514.045" y2="662.574" gradientUnits="userSpaceOnUse">
<stop offset="0.18" stop-color="#0052CC"/>
<stop offset="1" stop-color="#2684FF"/>
</linearGradient>
</defs>
</svg>
