<svg width="28" height="28" viewBox="0 0 28 28" fill="none" xmlns="http://www.w3.org/2000/svg">
<path d="M3.75726 16.4202C3.71001 16.2207 3.94801 16.0947 4.09326 16.24L11.76 23.905C11.9053 24.0502 11.7793 24.2882 11.5798 24.241C9.67836 23.7915 7.93957 22.8218 6.55803 21.4402C5.17648 20.0587 4.20671 18.3199 3.75726 16.4185V16.4202ZM3.50001 13.3472C3.49839 13.3766 3.50302 13.406 3.51358 13.4334C3.52413 13.4609 3.54038 13.4858 3.56126 13.5065L14.4935 24.4387C14.5142 24.4596 14.5391 24.4759 14.5666 24.4864C14.594 24.497 14.6234 24.5016 14.6528 24.5C15.1515 24.4685 15.6398 24.4037 16.1158 24.3057C16.1519 24.2979 16.1852 24.2804 16.2122 24.2552C16.2392 24.2299 16.2589 24.1978 16.2691 24.1623C16.2794 24.1267 16.2798 24.0891 16.2703 24.0534C16.2609 24.0176 16.2419 23.9851 16.2155 23.9592L4.04251 11.7845C4.01666 11.758 3.98413 11.7391 3.94838 11.7297C3.91264 11.7202 3.875 11.7206 3.83947 11.7309C3.80393 11.7411 3.77183 11.7608 3.74658 11.7878C3.72132 11.8148 3.70384 11.8481 3.69601 11.8842C3.59765 12.3668 3.53333 12.8557 3.50351 13.3472H3.50001ZM4.38376 9.73873C4.36694 9.77716 4.36211 9.81978 4.36992 9.861C4.37772 9.90221 4.3978 9.94011 4.42751 9.96973L18.0303 23.5725C18.0597 23.6024 18.0977 23.6226 18.1389 23.6304C18.1802 23.6383 18.2229 23.6333 18.2613 23.6162C18.6375 23.4482 18.9998 23.261 19.3515 23.0527C19.3784 23.0365 19.4013 23.0143 19.4184 22.9879C19.4354 22.9615 19.4462 22.9315 19.4499 22.9003C19.4537 22.869 19.4502 22.8374 19.4398 22.8077C19.4294 22.778 19.4124 22.7511 19.39 22.729L5.27101 8.60998C5.24891 8.58761 5.22198 8.57058 5.1923 8.56019C5.16261 8.5498 5.13095 8.54634 5.09972 8.55005C5.06849 8.55376 5.03852 8.56456 5.0121 8.58162C4.98567 8.59868 4.9635 8.62155 4.94726 8.64848C4.73901 8.99848 4.55176 9.36248 4.38376 9.73873ZM6.15826 7.29573C6.12037 7.25845 6.09831 7.20799 6.09668 7.15486C6.09505 7.10173 6.11397 7.05001 6.14951 7.01048C7.10191 5.94294 8.26222 5.08106 9.55938 4.47765C10.8565 3.87424 12.2632 3.542 13.6933 3.50127C15.1233 3.46054 16.5466 3.71219 17.876 4.2408C19.2054 4.76941 20.4129 5.56385 21.4245 6.57546C22.4361 7.58708 23.2306 8.79456 23.7592 10.124C24.2878 11.4533 24.5394 12.8767 24.4987 14.3067C24.458 15.7368 24.1258 17.1435 23.5223 18.4406C22.9189 19.7378 22.0571 20.8981 20.9895 21.8505C20.95 21.886 20.8983 21.9049 20.8451 21.9033C20.792 21.9017 20.7415 21.8796 20.7043 21.8417L6.15826 7.29573Z" fill="#8299FF"/>
</svg>
