<svg width="28" height="28" viewBox="0 0 28 28" fill="none" xmlns="http://www.w3.org/2000/svg">
<path d="M14.7928 9.39457C17.0187 9.39457 18.8231 7.59015 18.8231 5.36428C18.8231 3.13841 17.0187 1.33398 14.7928 1.33398C12.567 1.33398 10.7625 3.13841 10.7625 5.36428C10.7625 7.59015 12.567 9.39457 14.7928 9.39457Z" fill="#7B83EB"/>
<path opacity="0.1" d="M14.5052 6.22784H10.8549L10.8731 6.30816L10.8748 6.31506L10.8938 6.38933C11.159 7.39514 11.8026 8.25961 12.69 8.80222C13.5775 9.34483 14.6402 9.52364 15.6564 9.3013V7.37899C15.6555 7.07397 15.5339 6.7817 15.3182 6.56601C15.1025 6.35033 14.8103 6.22876 14.5052 6.22784Z" fill="black"/>
<path opacity="0.2" d="M13.6417 7.09143H11.1511C11.478 7.78058 11.9937 8.36283 12.6383 8.77053C13.283 9.17822 14.0301 9.39462 14.7928 9.39458V8.24257C14.7919 7.93755 14.6703 7.64528 14.4546 7.4296C14.239 7.21391 13.9467 7.09234 13.6417 7.09143Z" fill="black"/>
<path d="M23.8603 9.68216C25.5296 9.68216 26.8828 8.32893 26.8828 6.65965C26.8828 4.99037 25.5296 3.63715 23.8603 3.63715C22.1911 3.63715 20.8378 4.99037 20.8378 6.65965C20.8378 8.32893 22.1911 9.68216 23.8603 9.68216Z" fill="#5059C9"/>
<path d="M26.4511 10.5457H19.6625C19.5159 10.5457 19.3753 10.6039 19.2717 10.7076C19.1681 10.8112 19.1098 10.9518 19.1098 11.0984V18.102C19.0911 19.1156 19.4212 20.1049 20.0449 20.9041C20.6685 21.7034 21.5479 22.2641 22.5356 22.4924C23.1647 22.6244 23.8153 22.6144 24.4401 22.4633C25.0649 22.3121 25.6481 22.0235 26.1472 21.6184C26.6464 21.2134 27.0489 20.7022 27.3256 20.122C27.6022 19.5417 27.746 18.9071 27.7464 18.2643V11.8411C27.7464 11.4975 27.6099 11.168 27.367 10.9251C27.1241 10.6822 26.7946 10.5457 26.4511 10.5457Z" fill="#5059C9"/>
<path d="M21.7014 11.8411V20.045C21.7023 21.5654 21.2012 23.0435 20.2761 24.25C19.351 25.4565 18.0535 26.3239 16.585 26.7176C15.1165 27.1113 13.5591 27.0093 12.1545 26.4274C10.75 25.8455 9.57672 24.8162 8.81691 23.4993C8.65073 23.2231 8.50636 22.9344 8.38512 22.6357C8.27209 22.3541 8.17691 22.0657 8.10014 21.7722C7.95777 21.2075 7.88526 20.6274 7.88425 20.045V11.8411C7.88402 11.6709 7.91737 11.5024 7.98239 11.3451C8.04741 11.1878 8.14281 11.0449 8.26314 10.9246C8.38347 10.8043 8.52636 10.7089 8.68363 10.6439C8.84089 10.5788 9.00943 10.5455 9.17961 10.5457H20.4061C20.5762 10.5455 20.7448 10.5788 20.902 10.6439C21.0593 10.7089 21.2022 10.8043 21.3225 10.9246C21.4428 11.0449 21.5383 11.1878 21.6033 11.3451C21.6683 11.5024 21.7016 11.6709 21.7014 11.8411Z" fill="#7B83EB"/>
<path opacity="0.2" d="M13.6417 7.09143H11.1511C11.478 7.78058 11.9937 8.36283 12.6383 8.77053C13.283 9.17822 14.0301 9.39462 14.7928 9.39458V8.24257C14.7919 7.93755 14.6703 7.64528 14.4546 7.4296C14.239 7.21391 13.9467 7.09234 13.6417 7.09143Z" fill="black"/>
<path opacity="0.1" d="M15.6564 10.5457V21.4872C15.6564 21.7475 15.5673 22 15.4039 22.2027C15.2405 22.4053 15.0127 22.546 14.7583 22.6012C14.677 22.6254 14.5926 22.637 14.5079 22.6357H8.38512C8.27209 22.3541 8.17691 22.0657 8.10014 21.7722C7.95777 21.2075 7.88526 20.6274 7.88425 20.045V11.8411C7.88402 11.6709 7.91737 11.5024 7.98239 11.3451C8.04741 11.1878 8.14281 11.0449 8.26314 10.9246C8.38347 10.8043 8.52636 10.7089 8.68363 10.6439C8.84089 10.5788 9.00943 10.5455 9.17961 10.5457H15.6564Z" fill="black"/>
<path opacity="0.2" d="M14.7928 10.5457V22.3508C14.7941 22.4355 14.7824 22.52 14.7583 22.6012C14.7031 22.8556 14.5624 23.0834 14.3598 23.2468C14.1571 23.4102 13.9046 23.4993 13.6443 23.4993H8.81691C8.65073 23.2231 8.50636 22.9344 8.38512 22.6357C8.27209 22.3541 8.17691 22.0657 8.10014 21.7722C7.95777 21.2075 7.88526 20.6274 7.88425 20.045V11.8411C7.88402 11.6709 7.91737 11.5024 7.98239 11.3451C8.04741 11.1878 8.14281 11.0449 8.26314 10.9246C8.38347 10.8043 8.52636 10.7089 8.68363 10.6439C8.84089 10.5788 9.00943 10.5455 9.17961 10.5457H14.7928Z" fill="black"/>
<path opacity="0.2" d="M14.7928 10.5457V20.6236C14.7915 20.9278 14.67 21.2192 14.4549 21.4343C14.2398 21.6494 13.9485 21.7708 13.6443 21.7722H8.10014C7.95777 21.2075 7.88526 20.6274 7.88425 20.045V11.8411C7.88402 11.6709 7.91737 11.5024 7.98239 11.3451C8.04741 11.1878 8.14281 11.0449 8.26314 10.9246C8.38347 10.8043 8.52636 10.7089 8.68363 10.6439C8.84089 10.5788 9.00943 10.5455 9.17961 10.5457H14.7928Z" fill="black"/>
<path opacity="0.2" d="M9.17961 10.5457C9.00943 10.5455 8.84089 10.5788 8.68363 10.6439C8.52636 10.7089 8.38347 10.8043 8.26314 10.9246C8.14281 11.0449 8.04741 11.1878 7.98239 11.3451C7.91737 11.5024 7.88402 11.6709 7.88425 11.8411V20.045C7.88526 20.6274 7.95777 21.2075 8.10014 21.7722H12.7807C13.0849 21.7708 13.3762 21.6494 13.5913 21.4343C13.8064 21.2192 13.9279 20.9278 13.9293 20.6236V10.5457H9.17961Z" fill="black"/>
<path d="M1.26323 7.09143H12.7781C13.0834 7.09143 13.3762 7.21271 13.5921 7.42859C13.808 7.64447 13.9293 7.93727 13.9293 8.24257V19.7575C13.9293 20.0628 13.808 20.3556 13.5921 20.5714C13.3762 20.7873 13.0834 20.9086 12.7781 20.9086H1.26323C0.957932 20.9086 0.665134 20.7873 0.449253 20.5714C0.233372 20.3556 0.112091 20.0628 0.112091 19.7575L0.112091 8.24257C0.112091 7.93727 0.233372 7.64447 0.449253 7.42859C0.665134 7.21271 0.957932 7.09143 1.26323 7.09143Z" fill="#4B53BC"/>
<path d="M10.4577 11.3877H7.87561V18.3136H6.18128V11.3877H3.58365V9.68646H10.4577V11.3877Z" fill="white"/>
</svg>
