<svg width="28" height="28" viewBox="0 0 28 28" fill="none" xmlns="http://www.w3.org/2000/svg">
<path d="M2.91666 2.91667L18.6667 1.75L25.6667 6.41667V25.0833L6.41666 25.6667L2.91666 2.91667Z" fill="white"/>
<path fill-rule="evenodd" clip-rule="evenodd" d="M17.4737 1.22522L3.22889 2.27344C2.08031 2.37285 1.67999 3.12164 1.67999 4.01928V19.5881C1.67999 20.2877 1.92947 20.8856 2.52956 21.6846L5.87813 26.026C6.42816 26.7251 6.92797 26.8745 7.97825 26.8245L24.5206 25.8264C25.9197 25.727 26.32 25.0779 26.32 23.98V6.46472C26.32 5.89723 26.0953 5.7333 25.433 5.25008C25.3965 5.22356 25.3587 5.19602 25.3196 5.16735L20.7725 1.9738C19.673 1.17572 19.223 1.0753 17.4737 1.22522ZM8.35333 6.17742C7.00275 6.26853 6.69587 6.28924 5.92885 5.66657L3.97844 4.11972C3.77953 3.9197 3.87929 3.67022 4.37876 3.62068L18.0735 2.62258C19.2227 2.52258 19.8224 2.92246 20.2725 3.27153L22.6213 4.96835C22.7214 5.01805 22.9708 5.31707 22.6708 5.31707L8.52768 6.1657L8.35333 6.17742ZM6.778 23.8301V8.9602C6.778 8.3116 6.97793 8.01199 7.57734 7.9616L23.8202 7.01381C24.3712 6.96394 24.6207 7.31352 24.6207 7.9616V22.7318C24.6207 23.3811 24.5204 23.9306 23.6204 23.98L8.07725 24.8788C7.17771 24.9283 6.778 24.6293 6.778 23.8301ZM22.1223 9.75784C22.222 10.2074 22.1223 10.6565 21.6716 10.7071L20.9226 10.8562V21.8341C20.2725 22.1834 19.6728 22.383 19.1732 22.383C18.3732 22.383 18.1729 22.1333 17.5737 21.3851L12.675 13.7005V21.1357L14.225 21.4852C14.225 21.4852 14.225 22.383 12.9745 22.383L9.52681 22.5828C9.42662 22.383 9.52681 21.8844 9.87647 21.7845L10.7762 21.5353V11.7047L9.52698 11.6047C9.4268 11.1552 9.67628 10.507 10.3765 10.4567L14.0752 10.2076L19.1732 17.9922V11.1057L17.8734 10.9566C17.7736 10.407 18.1729 10.008 18.6727 9.95847L22.1223 9.75784Z" fill="black"/>
</svg>
