<svg width="28" height="28" viewBox="0 0 28 28" fill="none" xmlns="http://www.w3.org/2000/svg">
<path d="M10.9627 10.4918L16.4859 13.7993L19.777 12.414C20.4459 12.125 21.167 11.9765 21.8957 11.9774C22.0173 11.9774 22.1374 11.9832 22.2566 11.9906C21.8611 10.4476 21.0258 9.05275 19.8524 7.97556C18.679 6.89838 17.218 6.18525 15.6469 5.92286C14.0758 5.66048 12.4623 5.86013 11.0025 6.49755C9.54275 7.13497 8.29959 8.18272 7.42413 9.51343L7.50799 9.51096C8.72849 9.50936 9.92511 9.8491 10.9627 10.4918Z" fill="#0364B8"/>
<path d="M10.9635 10.491C9.9256 9.84845 8.72868 9.509 7.50799 9.511L7.42413 9.51346C6.22955 9.5284 5.06161 9.86855 4.04581 10.4974C3.03 11.1262 2.20473 12.0199 1.65865 13.0824C1.11258 14.145 0.866336 15.3363 0.94639 16.5283C1.02644 17.7203 1.42977 18.8679 2.11302 19.8479L6.98181 17.7983L9.14736 16.8873L13.9676 14.8583L16.4851 13.7993L10.9635 10.491Z" fill="#0078D4"/>
<path d="M22.2566 11.9906C22.1365 11.9822 22.0161 11.9778 21.8957 11.9774C21.1672 11.9768 20.4464 12.1257 19.7778 12.4148L16.4859 13.7993L17.4404 14.3707L20.5687 16.2444L21.9335 17.0616L26.6008 19.8569C27.0249 19.0697 27.2447 18.1887 27.24 17.2945C27.2354 16.4004 27.0064 15.5217 26.5741 14.7389C26.1419 13.9562 25.5201 13.2944 24.7658 12.8143C24.0115 12.3341 23.1487 12.0509 22.2566 11.9906Z" fill="#1490DF"/>
<path d="M21.9335 17.0616L20.5687 16.2444L17.4404 14.3699L16.4867 13.7993L13.9685 14.8582L9.14819 16.8873L6.98182 17.7983L2.11139 19.8479C2.71676 20.7182 3.52379 21.429 4.46355 21.9196C5.40331 22.4103 6.44787 22.6662 7.508 22.6654H21.8957C22.8605 22.6658 23.8073 22.4049 24.6358 21.9104C25.4642 21.4159 26.1432 20.7063 26.6008 19.8569L21.9335 17.0616Z" fill="#28A8EA"/>
</svg>
