<svg width="28" height="28" viewBox="0 0 28 28" fill="none" xmlns="http://www.w3.org/2000/svg">
<g clip-path="url(#clip0_24_64)">
<path d="M28 14.6511C28.0015 14.4322 27.8884 14.2284 27.7018 14.1139H27.6985L27.6868 14.1074L17.9845 8.36416C17.9426 8.33585 17.8991 8.30998 17.8542 8.28668C17.4796 8.09341 17.0346 8.09341 16.66 8.28668C16.6151 8.30999 16.5716 8.33585 16.5298 8.36416L6.82746 14.1074L6.81575 14.1139C6.51921 14.2983 6.42831 14.6882 6.61271 14.9847C6.66704 15.0721 6.74187 15.1449 6.83072 15.1968L16.533 20.9401C16.5751 20.9681 16.6185 20.994 16.6633 21.0176C17.0379 21.2108 17.4829 21.2108 17.8575 21.0176C17.9022 20.994 17.9457 20.9681 17.9877 20.9401L27.6901 15.1968C27.8839 15.0838 28.0022 14.8755 28 14.6511Z" fill="#0A2767"/>
<path d="M7.95847 10.8165H14.3255V16.6528H7.95847V10.8165ZM26.6976 4.88372V2.21395C26.7129 1.54644 26.1846 0.99274 25.5171 0.976746H8.99449C8.32698 0.99274 7.79863 1.54644 7.81392 2.21395V4.88372L17.5814 7.48836L26.6976 4.88372Z" fill="#0364B8"/>
<path d="M7.81396 4.88373H14.3256V10.7442H7.81396V4.88373Z" fill="#0078D4"/>
<path d="M20.8372 4.88373H14.3256V10.7442L20.8372 16.6046H26.6977V10.7442L20.8372 4.88373Z" fill="#28A8EA"/>
<path d="M14.3256 10.7442H20.8372V16.6047H14.3256V10.7442Z" fill="#0078D4"/>
<path d="M14.3256 16.6046H20.8372V22.4651H14.3256V16.6046Z" fill="#0364B8"/>
<path d="M7.9585 16.6528H14.3256V21.9585H7.9585V16.6528Z" fill="#14447D"/>
<path d="M20.8372 16.6046H26.6977V22.4651H20.8372V16.6046Z" fill="#0078D4"/>
<path d="M27.7017 15.161L27.6893 15.1675L17.987 20.6242C17.9447 20.6503 17.9017 20.675 17.8568 20.6972C17.692 20.7756 17.513 20.8199 17.3307 20.8274L16.8006 20.5174C16.7558 20.495 16.7123 20.47 16.6704 20.4426L6.83782 14.8308H6.83327L6.5116 14.6511V25.6974C6.51661 26.4344 7.11795 27.0279 7.85494 27.0232H26.6774C26.6885 27.0232 26.6983 27.018 26.71 27.018C26.8657 27.008 27.0191 26.976 27.1658 26.9229C27.2292 26.8961 27.2904 26.8643 27.3488 26.8279C27.3924 26.8031 27.4673 26.7491 27.4673 26.7491C27.8009 26.5022 27.9983 26.1124 27.9999 25.6975V14.6511C27.9997 14.8624 27.8858 15.0572 27.7017 15.161Z" fill="url(#paint0_linear_24_64)"/>
<path opacity="0.5" d="M27.4791 14.6076V15.2848L17.334 22.2698L6.8307 14.8355C6.8307 14.8319 6.82778 14.8289 6.82419 14.8289L5.86047 14.2494V13.761L6.25769 13.7545L7.09768 14.2364L7.1172 14.2429L7.18883 14.2885C7.18883 14.2885 17.0604 19.921 17.0865 19.934L17.4642 20.1554C17.4967 20.1424 17.5293 20.1294 17.5683 20.1164C17.5879 20.1033 27.3683 14.601 27.3683 14.601L27.4791 14.6076Z" fill="#0A2767"/>
<path d="M27.7018 15.161L27.6894 15.1681L17.9871 20.6249C17.9447 20.6509 17.9018 20.6757 17.8568 20.6978C17.48 20.8819 17.0394 20.8819 16.6626 20.6978C16.618 20.6757 16.5745 20.6514 16.5324 20.6249L6.83007 15.1681L6.81836 15.161C6.63104 15.0594 6.5136 14.8642 6.51166 14.6511V25.6974C6.51632 26.4343 7.11745 27.0279 7.8543 27.0232C7.8543 27.0232 7.85433 27.0232 7.85436 27.0232H26.6573C27.3942 27.0279 27.9953 26.4344 28 25.6975C28 25.6975 28 25.6975 28 25.6974V14.6511C27.9998 14.8624 27.8858 15.0572 27.7018 15.161Z" fill="#1490DF"/>
<path opacity="0.1" d="M18.1284 20.5442L17.9832 20.6256C17.9411 20.6524 17.8976 20.677 17.8529 20.6992C17.693 20.7777 17.519 20.8237 17.3411 20.8346L21.0326 25.2L27.4719 26.7517C27.6484 26.6184 27.7887 26.4432 27.8802 26.2419L18.1284 20.5442Z" fill="black"/>
<path opacity="0.05" d="M18.786 20.1743L17.9832 20.6256C17.9411 20.6524 17.8976 20.6769 17.8529 20.6992C17.693 20.7777 17.519 20.8237 17.3411 20.8346L19.0706 25.6031L27.4739 26.7497C27.8049 26.5012 27.9998 26.1114 28 25.6975V25.5549L18.786 20.1743Z" fill="black"/>
<path d="M7.87258 27.0232H26.6554C26.9444 27.0247 27.2263 26.9334 27.4595 26.7627L16.8 20.5188C16.7552 20.4963 16.7117 20.4713 16.6698 20.4439L6.83723 14.8321H6.83267L6.51166 14.6511V25.6597C6.51092 26.412 7.12023 27.0225 7.87258 27.0232V27.0232Z" fill="#28A8EA"/>
<path opacity="0.1" d="M15.6279 7.37961V21.2689C15.6267 21.7559 15.3306 22.1936 14.879 22.3759C14.7391 22.436 14.5885 22.467 14.4362 22.4671H6.5116V6.83719H7.81393V6.18604H14.4363C15.0941 6.18853 15.6265 6.72177 15.6279 7.37961Z" fill="black"/>
<path opacity="0.2" d="M14.9767 8.03079V21.9201C14.9784 22.0774 14.945 22.2331 14.879 22.3759C14.6982 22.8216 14.2661 23.114 13.7851 23.1162H6.5116V6.83721H13.7851C13.974 6.83532 14.1602 6.88245 14.3255 6.97396C14.7247 7.17506 14.9766 7.58383 14.9767 8.03079Z" fill="black"/>
<path opacity="0.2" d="M14.9767 8.03079V20.6178C14.9735 21.2753 14.4426 21.8082 13.7851 21.8139H6.5116V6.83721H13.7851C13.974 6.83532 14.1602 6.88245 14.3255 6.97396C14.7247 7.17506 14.9766 7.58383 14.9767 8.03079Z" fill="black"/>
<path opacity="0.2" d="M14.3255 8.0308V20.6178C14.3248 21.2763 13.7925 21.8107 13.1339 21.8139H6.5116V6.83722H13.1339C13.7924 6.83757 14.3259 7.37167 14.3255 8.03015C14.3255 8.03037 14.3255 8.03058 14.3255 8.0308Z" fill="black"/>
<path d="M1.19358 6.83722H13.132C13.7912 6.83722 14.3256 7.37161 14.3256 8.0308V19.9692C14.3256 20.6284 13.7912 21.1628 13.132 21.1628H1.19358C0.534376 21.1628 0 20.6284 0 19.9692V8.0308C0 7.37161 0.534391 6.83722 1.19358 6.83722Z" fill="url(#paint1_linear_24_64)"/>
<path d="M3.73053 11.8433C4.02471 11.2166 4.49954 10.6921 5.09408 10.3372C5.75248 9.96025 6.50213 9.77233 7.2605 9.79412C7.96337 9.77887 8.65693 9.95705 9.26542 10.3092C9.83754 10.6504 10.2983 11.1503 10.5918 11.7483C10.9115 12.4072 11.0708 13.1323 11.0568 13.8645C11.0723 14.6298 10.9084 15.388 10.5782 16.0785C10.2777 16.6978 9.80226 17.2156 9.21073 17.5677C8.57877 17.9306 7.85946 18.1135 7.13092 18.0964C6.41303 18.1138 5.70418 17.9336 5.0817 17.5755C4.50463 17.2339 4.03808 16.7334 3.73771 16.1338C3.41616 15.4844 3.25495 14.7674 3.26757 14.0429C3.25417 13.2842 3.41244 12.5323 3.73053 11.8433ZM5.18393 15.3791C5.34077 15.7754 5.60675 16.119 5.95099 16.3702C6.30163 16.6153 6.72149 16.7417 7.14913 16.7309C7.60455 16.749 8.05347 16.6182 8.42802 16.3585C8.7679 16.1081 9.02689 15.7635 9.17294 15.3674C9.33621 14.9251 9.41678 14.4565 9.41062 13.985C9.41566 13.509 9.33992 13.0356 9.18661 12.585C9.0512 12.1781 8.80056 11.8194 8.46513 11.5523C8.09997 11.2802 7.65226 11.1422 7.19731 11.1616C6.7604 11.1502 6.33114 11.2777 5.97118 11.5256C5.62111 11.7778 5.35009 12.1245 5.18978 12.5251C4.83418 13.4433 4.83233 14.4609 5.18457 15.3804L5.18393 15.3791Z" fill="white"/>
<path d="M20.8372 4.88373H26.6977V10.7442H20.8372V4.88373Z" fill="#50D9FF"/>
</g>
<defs>
<linearGradient id="paint0_linear_24_64" x1="17.2558" y1="14.6511" x2="17.2558" y2="27.0232" gradientUnits="userSpaceOnUse">
<stop stop-color="#35B8F1"/>
<stop offset="1" stop-color="#28A8EA"/>
</linearGradient>
<linearGradient id="paint1_linear_24_64" x1="2.48864" y1="5.90458" x2="11.8369" y2="22.0954" gradientUnits="userSpaceOnUse">
<stop stop-color="#1784D9"/>
<stop offset="0.5" stop-color="#107AD5"/>
<stop offset="1" stop-color="#0A63C9"/>
</linearGradient>
<clipPath id="clip0_24_64">
<rect width="28" height="28" fill="white"/>
</clipPath>
</defs>
</svg>
