<svg width="28" height="28" viewBox="0 0 28 28" fill="none" xmlns="http://www.w3.org/2000/svg">
<path d="M14 24.5C11.9233 24.5 9.89323 23.8842 8.16651 22.7304C6.4398 21.5767 5.09399 19.9368 4.29927 18.0182C3.50455 16.0995 3.29661 13.9883 3.70176 11.9516C4.1069 9.91475 5.10693 8.04384 6.57538 6.57538C8.04384 5.10693 9.91475 4.1069 11.9516 3.70176C13.9883 3.29661 16.0995 3.50455 18.0182 4.29927C19.9368 5.09399 21.5767 6.4398 22.7304 8.16651C23.8842 9.89323 24.5 11.9233 24.5 14V24.5H14Z" fill="#FB7555"/>
<path d="M24.5 25.375H14C11.7502 25.375 9.551 24.7079 7.68039 23.4579C5.80979 22.2081 4.35182 20.4315 3.49088 18.3531C2.62992 16.2745 2.40466 13.9874 2.84358 11.7809C3.28248 9.57432 4.36584 7.54749 5.95666 5.95666C7.54749 4.36584 9.57432 3.28248 11.7809 2.84358C13.9874 2.40466 16.2745 2.62992 18.3531 3.49088C20.4315 4.35182 22.2081 5.80979 23.4579 7.68039C24.7079 9.551 25.375 11.7502 25.375 14V24.5C25.375 24.7321 25.2828 24.9547 25.1187 25.1187C24.9547 25.2828 24.7321 25.375 24.5 25.375ZM14 4.375C11.4473 4.375 8.99914 5.38907 7.1941 7.1941C5.38907 8.99914 4.375 11.4473 4.375 14C4.375 16.5527 5.38907 19.0009 7.1941 20.8059C8.99914 22.6109 11.4473 23.625 14 23.625H23.625V14C23.625 11.4473 22.6109 8.99914 20.8059 7.1941C19.0009 5.38907 16.5527 4.375 14 4.375Z" fill="#C43E20"/>
<path d="M17.9375 10.9375H10.0625C9.83044 10.9375 9.60787 10.8453 9.44378 10.6812C9.27969 10.5171 9.1875 10.2946 9.1875 10.0625C9.1875 9.83044 9.27969 9.60787 9.44378 9.44378C9.60787 9.27969 9.83044 9.1875 10.0625 9.1875H17.9375C18.1695 9.1875 18.3921 9.27969 18.5562 9.44378C18.7203 9.60787 18.8125 9.83044 18.8125 10.0625C18.8125 10.2946 18.7203 10.5171 18.5562 10.6812C18.3921 10.8453 18.1695 10.9375 17.9375 10.9375Z" fill="white"/>
<path d="M17.9375 18.8125H10.0625C9.83044 18.8125 9.60787 18.7203 9.44378 18.5562C9.27969 18.3922 9.1875 18.1695 9.1875 17.9375C9.1875 17.7054 9.27969 17.4828 9.44378 17.3188C9.60787 17.1547 9.83044 17.0625 10.0625 17.0625H17.9375C18.1695 17.0625 18.3921 17.1547 18.5562 17.3188C18.7203 17.4828 18.8125 17.7054 18.8125 17.9375C18.8125 18.1695 18.7203 18.3922 18.5562 18.5562C18.3921 18.7203 18.1695 18.8125 17.9375 18.8125Z" fill="white"/>
<path d="M20.5625 14.875H7.4375C7.20544 14.875 6.98287 14.7828 6.81878 14.6187C6.65469 14.4547 6.5625 14.232 6.5625 14C6.5625 13.7679 6.65469 13.5453 6.81878 13.3813C6.98287 13.2172 7.20544 13.125 7.4375 13.125H20.5625C20.7945 13.125 21.0171 13.2172 21.1812 13.3813C21.3453 13.5453 21.4375 13.7679 21.4375 14C21.4375 14.232 21.3453 14.4547 21.1812 14.6187C21.0171 14.7828 20.7945 14.875 20.5625 14.875Z" fill="white"/>
</svg>
