<svg width="28" height="28" viewBox="0 0 28 28" fill="none" xmlns="http://www.w3.org/2000/svg">
<mask id="mask0_25_92" style="mask-type:alpha" maskUnits="userSpaceOnUse" x="0" y="4" width="28" height="21">
<path d="M0 4.66669H27.8787V24.1784H0V4.66669Z" fill="white"/>
</mask>
<g mask="url(#mask0_25_92)">
<path fill-rule="evenodd" clip-rule="evenodd" d="M11.5967 6.79541C12.496 5.85855 13.7481 5.27723 15.1328 5.27723C16.9735 5.27723 18.5795 6.30363 19.4346 7.82755C20.1995 7.48572 21.0282 7.30954 21.8661 7.31056C25.1861 7.31056 27.8776 10.0255 27.8776 13.3748C27.8776 16.7241 25.1861 19.4391 21.8661 19.4391C21.4607 19.4391 21.0649 19.3984 20.6818 19.3212C19.9289 20.6643 18.4935 21.5719 16.8464 21.5719C16.1801 21.5729 15.5226 21.4214 14.9238 21.1294C14.1605 22.9254 12.3815 24.1846 10.3087 24.1846C8.14962 24.1846 6.30951 22.8186 5.60369 20.9028C5.28911 20.9692 4.96846 21.0026 4.64696 21.0025C2.07645 21.0025 -0.00720215 18.897 -0.00720215 16.2999C-0.00720215 14.5591 0.928835 13.0394 2.32008 12.2265C2.02532 11.5477 1.87363 10.8154 1.87451 10.0754C1.87451 7.08834 4.29933 4.66669 7.29042 4.66669C9.04652 4.66669 10.6072 5.5015 11.5967 6.79541Z" fill="#00A1E0"/>
<path fill-rule="evenodd" clip-rule="evenodd" d="M4.03264 14.7882C4.01513 14.8338 4.03889 14.8434 4.04453 14.8514C4.09689 14.8893 4.15005 14.9169 4.20374 14.9477C4.48806 15.0982 4.7568 15.1424 5.03752 15.1424C5.60954 15.1424 5.96486 14.8382 5.96486 14.3485V14.3389C5.96486 13.886 5.56374 13.7215 5.18784 13.6027L5.13876 13.5869C4.85526 13.4948 4.61059 13.4153 4.61059 13.2285V13.2189C4.61059 13.059 4.75363 12.9415 4.97524 12.9415C5.22165 12.9415 5.51364 13.0234 5.70195 13.1273C5.70195 13.1273 5.75749 13.1633 5.77767 13.1096C5.78864 13.0807 5.88381 12.8243 5.89396 12.7966C5.90482 12.7665 5.88576 12.7438 5.8662 12.7322C5.65113 12.6012 5.35412 12.512 5.04665 12.512L4.98957 12.5123C4.46603 12.5123 4.10047 12.8288 4.10047 13.2819V13.2916C4.10047 13.769 4.50374 13.9243 4.88149 14.0322L4.94214 14.051C5.21724 14.1354 5.45483 14.2084 5.45483 14.4019V14.4115C5.45483 14.5888 5.30043 14.7204 5.05177 14.7204C4.95536 14.7204 4.64758 14.7188 4.31501 14.5084C4.27475 14.485 4.2518 14.4681 4.22075 14.4492C4.20436 14.4392 4.16338 14.4213 4.14555 14.4749L4.03264 14.7882ZM12.4063 14.7882C12.3888 14.8338 12.4126 14.8434 12.4185 14.8514C12.4706 14.8893 12.5238 14.9169 12.5775 14.9477C12.8619 15.0982 13.1306 15.1424 13.4112 15.1424C13.9832 15.1424 14.3387 14.8382 14.3387 14.3485V14.3389C14.3387 13.886 13.9377 13.7215 13.5617 13.6027L13.5126 13.5869C13.2291 13.4948 12.9843 13.4153 12.9843 13.2285V13.2189C12.9843 13.059 13.1275 12.9415 13.3491 12.9415C13.5954 12.9415 13.8873 13.0234 14.0757 13.1273C14.0757 13.1273 14.1313 13.1633 14.1514 13.1096C14.1624 13.0807 14.2576 12.8243 14.2676 12.7966C14.2786 12.7665 14.2595 12.7438 14.24 12.7322C14.0249 12.6012 13.7279 12.512 13.4205 12.512L13.3634 12.5123C12.8399 12.5123 12.4742 12.8288 12.4742 13.2819V13.2916C12.4742 13.769 12.8774 13.9243 13.2553 14.0322L13.3159 14.051C13.5911 14.1354 13.8286 14.2084 13.8286 14.4019V14.4115C13.8286 14.5888 13.6742 14.7204 13.4257 14.7204C13.3291 14.7204 13.0213 14.7188 12.6888 14.5084C12.6485 14.485 12.625 14.4688 12.5945 14.4492C12.5841 14.4426 12.5358 14.4237 12.5194 14.4749L12.4063 14.7882ZM18.1229 13.8287C18.1229 14.1053 18.0712 14.3239 17.9698 14.4779C17.869 14.6305 17.7169 14.7048 17.5047 14.7048C17.2925 14.7048 17.1411 14.6306 17.042 14.478C16.9419 14.324 16.891 14.1053 16.891 13.8287C16.891 13.5523 16.9419 13.3346 17.042 13.1822C17.1411 13.0311 17.2925 12.9577 17.5047 12.9577C17.7169 12.9577 17.869 13.0312 17.9698 13.1823C18.0714 13.3346 18.1229 13.5523 18.1229 13.8287ZM18.6005 13.3157C18.5535 13.1571 18.4805 13.0174 18.3832 12.9009C18.2858 12.7841 18.1626 12.6902 18.0165 12.6222C17.8705 12.554 17.6985 12.5195 17.5047 12.5195C17.3109 12.5195 17.1387 12.554 16.9927 12.6222C16.8468 12.6902 16.7235 12.7841 16.6261 12.9011C16.5289 13.0178 16.4556 13.1573 16.4088 13.3157C16.3622 13.4732 16.3385 13.6459 16.3385 13.8287C16.3385 14.0118 16.3622 14.1844 16.4088 14.3417C16.4556 14.5001 16.5286 14.6397 16.6261 14.7566C16.7236 14.8736 16.8473 14.9667 16.9929 15.0331C17.139 15.0996 17.3111 15.1333 17.5047 15.1333C17.6983 15.1333 17.8702 15.0996 18.0163 15.0331C18.1621 14.9667 18.2856 14.8736 18.3832 14.7566C18.4805 14.6401 18.5535 14.5004 18.6005 14.3417C18.6471 14.1842 18.6708 14.0115 18.6708 13.8287C18.6708 13.6461 18.6471 13.4734 18.6005 13.3157ZM22.5212 14.6307C22.5056 14.5843 22.4602 14.6018 22.4602 14.6018C22.3909 14.6284 22.3172 14.653 22.2382 14.6652C22.1587 14.6777 22.0708 14.684 21.9765 14.684C21.7457 14.684 21.5619 14.6152 21.4306 14.4794C21.2987 14.3433 21.2246 14.1238 21.2254 13.8266C21.2262 13.5565 21.2916 13.3531 21.4088 13.1979C21.5249 13.0438 21.7023 12.9648 21.9384 12.9648C22.1354 12.9648 22.2857 12.9876 22.4432 13.037C22.4432 13.037 22.4805 13.0532 22.4985 13.004C22.5404 12.8879 22.5713 12.8053 22.616 12.6778C22.6287 12.6414 22.5975 12.626 22.5862 12.6216C22.5243 12.5974 22.3781 12.5578 22.2677 12.5411C22.1646 12.5253 22.0439 12.5172 21.9094 12.5172C21.709 12.5172 21.5301 12.5515 21.3773 12.6195C21.2247 12.6874 21.0953 12.7813 20.9928 12.898C20.8902 13.0149 20.8122 13.1545 20.7605 13.3129C20.7088 13.4704 20.6827 13.6435 20.6827 13.8269C20.6827 14.2228 20.7895 14.5427 21.0002 14.7772C21.2118 15.0124 21.529 15.1319 21.9429 15.1319C22.1876 15.1319 22.4384 15.0824 22.6191 15.0113C22.6191 15.0113 22.6536 14.9947 22.6386 14.9546L22.5212 14.6307ZM23.3567 13.5635C23.3795 13.4098 23.4215 13.2819 23.4872 13.1822C23.5864 13.0311 23.7371 12.9478 23.9493 12.9478C24.1617 12.9478 24.3014 13.0312 24.4024 13.1823C24.4689 13.2821 24.498 13.4153 24.5093 13.5637L23.3567 13.5635ZM24.9641 13.2257C24.9234 13.0726 24.8232 12.918 24.7574 12.8473C24.6533 12.7352 24.5515 12.6568 24.4503 12.6134C24.304 12.5512 24.1466 12.5193 23.9876 12.5195C23.7858 12.5195 23.6025 12.5536 23.4539 12.6233C23.305 12.6931 23.1799 12.7886 23.0818 12.9073C22.9836 13.0258 22.91 13.1669 22.8629 13.3269C22.8158 13.4861 22.792 13.6596 22.792 13.8427C22.792 14.0289 22.8167 14.2026 22.8653 14.3587C22.9144 14.5162 22.9931 14.6545 23.0994 14.7695C23.2057 14.885 23.3426 14.9756 23.5059 15.0387C23.6685 15.1017 23.866 15.1343 24.0926 15.1336C24.5596 15.1321 24.8052 15.0281 24.9066 14.9719C24.9246 14.9619 24.9415 14.9446 24.9204 14.8947L24.8145 14.5988C24.7984 14.5546 24.7538 14.5706 24.7538 14.5706C24.6379 14.6139 24.4739 14.691 24.0903 14.6902C23.8397 14.6898 23.6539 14.6158 23.5373 14.5C23.4179 14.3817 23.3594 14.208 23.3493 13.9624L24.9653 13.9637C24.9653 13.9637 25.008 13.9632 25.0123 13.9217C25.014 13.9044 25.0677 13.5898 24.9641 13.2257ZM10.4125 13.5635C10.4353 13.4098 10.4775 13.2819 10.5431 13.1822C10.6423 13.0311 10.7929 12.9478 11.0053 12.9478C11.2176 12.9478 11.3574 13.0312 11.4582 13.1823C11.5247 13.2821 11.5538 13.4153 11.5652 13.5637L10.4125 13.5635ZM12.0199 13.2257C11.9793 13.0726 11.879 12.918 11.8132 12.8473C11.7093 12.7352 11.6075 12.6568 11.5063 12.6134C11.3599 12.5512 11.2025 12.5193 11.0435 12.5195C10.8418 12.5195 10.6585 12.5536 10.5098 12.6233C10.3609 12.6931 10.2358 12.7886 10.1376 12.9073C10.0395 13.0258 9.96586 13.1669 9.91864 13.3269C9.87161 13.4861 9.84794 13.6596 9.84794 13.8427C9.84794 14.0289 9.87242 14.2026 9.92129 14.3587C9.97027 14.5162 10.0492 14.6545 10.1553 14.7695C10.2617 14.885 10.3983 14.9756 10.5617 15.0387C10.7245 15.1017 10.9218 15.1343 11.1485 15.1336C11.6154 15.1321 11.861 15.0281 11.9625 14.9719C11.9804 14.9619 11.9973 14.9446 11.9762 14.8947L11.8705 14.5988C11.8543 14.5546 11.8096 14.5706 11.8096 14.5706C11.6937 14.6139 11.5297 14.691 11.146 14.6902C10.8955 14.6898 10.7098 14.6158 10.5931 14.5C10.4738 14.3817 10.4151 14.208 10.4052 13.9624L12.0212 13.9637C12.0212 13.9637 12.0638 13.9632 12.0682 13.9217C12.07 13.9044 12.1237 13.5898 12.0199 13.2257ZM6.91903 14.6218C6.85561 14.5713 6.8468 14.5588 6.82579 14.5259C6.79373 14.4765 6.77733 14.406 6.77733 14.3157C6.77733 14.1738 6.82446 14.0716 6.92158 14.0029C6.92057 14.0031 7.06093 13.8818 7.39033 13.8861C7.53727 13.8887 7.68387 13.9013 7.82915 13.9236V14.6581C7.82915 14.6581 7.62393 14.7023 7.39268 14.7162C7.064 14.736 6.918 14.6216 6.91903 14.6218ZM7.56214 13.4861C7.49658 13.4813 7.41163 13.4788 7.30979 13.4788C7.17138 13.4788 7.03747 13.4961 6.91175 13.5299C6.78553 13.5639 6.67201 13.6166 6.57436 13.6864C6.47678 13.756 6.39655 13.8473 6.33985 13.953C6.28258 14.0596 6.25338 14.1849 6.25338 14.3254C6.25338 14.4688 6.27827 14.5929 6.32745 14.6943C6.37556 14.7948 6.448 14.8819 6.53819 14.9473C6.62805 15.0128 6.73891 15.0607 6.8675 15.09C6.99443 15.1189 7.13828 15.1336 7.29546 15.1336C7.46143 15.1336 7.62648 15.1198 7.78642 15.0928C7.92265 15.0692 8.05837 15.0429 8.19347 15.0137C8.24737 15.0012 8.30679 14.985 8.30679 14.985C8.34675 14.9749 8.34368 14.9322 8.34368 14.9322L8.34276 13.4541C8.34276 13.1299 8.25629 12.8898 8.08589 12.7406C7.91633 12.5922 7.66665 12.5172 7.3436 12.5172C7.22229 12.5172 7.02743 12.5335 6.91042 12.5569C6.91042 12.5569 6.55756 12.6254 6.41228 12.7393C6.41228 12.7393 6.38032 12.7589 6.39773 12.8035L6.51218 13.1109C6.52642 13.1507 6.56525 13.1371 6.56525 13.1371C6.56525 13.1371 6.57744 13.1322 6.59178 13.1237C6.90264 12.9547 7.29597 12.9597 7.29597 12.9597C7.47055 12.9597 7.60508 12.995 7.69543 13.0642C7.78366 13.132 7.82842 13.234 7.82842 13.4493V13.5177C7.6898 13.4976 7.56214 13.4861 7.56214 13.4861ZM20.5981 12.6534C20.6004 12.6479 20.6017 12.6422 20.6017 12.6363C20.6017 12.6304 20.6005 12.6246 20.5983 12.6191C20.5961 12.6138 20.5927 12.6087 20.5885 12.6047C20.5843 12.6006 20.5793 12.5973 20.5738 12.5952C20.5463 12.5847 20.4089 12.5558 20.3029 12.5492C20.0998 12.5365 19.9872 12.5707 19.8862 12.6162C19.786 12.6614 19.675 12.7344 19.6131 12.8177L19.613 12.6206C19.613 12.5936 19.5937 12.5718 19.5665 12.5718H19.1521C19.1253 12.5718 19.1058 12.5936 19.1058 12.6206V15.0316C19.1059 15.0446 19.1111 15.0571 19.1203 15.0663C19.1295 15.0754 19.142 15.0807 19.1549 15.0807H19.5796C19.5927 15.0807 19.605 15.0754 19.6142 15.0662C19.6235 15.0571 19.6286 15.0446 19.6286 15.0316V13.8272C19.6286 13.6654 19.6464 13.5043 19.6819 13.403C19.717 13.3027 19.7646 13.2228 19.8237 13.1652C19.8795 13.1098 19.948 13.0686 20.0233 13.0452C20.0937 13.025 20.1667 13.0146 20.24 13.0146C20.3245 13.0146 20.4176 13.0363 20.4176 13.0363C20.4488 13.0398 20.466 13.0208 20.4766 12.9927C20.5044 12.9188 20.583 12.6974 20.5981 12.6534Z" fill="#FFFFFE"/>
<path fill-rule="evenodd" clip-rule="evenodd" d="M16.6123 11.5361C16.5599 11.5203 16.5066 11.5076 16.4526 11.4982C16.38 11.4861 16.3065 11.4804 16.2329 11.4812C15.9406 11.4812 15.7102 11.5638 15.5484 11.7269C15.3877 11.8888 15.2784 12.1354 15.2236 12.4599L15.2039 12.5694H14.837C14.837 12.5694 14.7922 12.5676 14.7827 12.6165L14.7225 12.9525C14.7183 12.9847 14.7322 13.0047 14.7752 13.0045H15.1324L14.77 15.0274C14.7415 15.1902 14.7091 15.3243 14.6732 15.4258C14.6377 15.526 14.603 15.601 14.5605 15.6556C14.5192 15.7084 14.48 15.7472 14.4125 15.7698C14.3568 15.7885 14.2926 15.7971 14.2224 15.7971C14.1832 15.7971 14.1311 15.7906 14.0927 15.7829C14.0544 15.7753 14.0343 15.7667 14.0056 15.7547C14.0056 15.7547 13.9636 15.7387 13.9471 15.7807C13.9337 15.815 13.8385 16.0768 13.8272 16.1091C13.8158 16.1411 13.8319 16.1663 13.8522 16.1736C13.8997 16.1907 13.935 16.2015 13.9998 16.2167C14.0897 16.2379 14.1655 16.2393 14.2366 16.2393C14.3853 16.2393 14.5209 16.2184 14.6333 16.1778C14.7464 16.1369 14.8449 16.0657 14.9319 15.9693C15.0261 15.8653 15.0853 15.7564 15.1419 15.6078C15.198 15.4606 15.2458 15.2779 15.284 15.0648L15.6481 13.0045H16.1805C16.1805 13.0045 16.2253 13.0061 16.2346 12.9575L16.2949 12.6215C16.2991 12.5893 16.2854 12.5692 16.2421 12.5694H15.7255C15.7281 12.5578 15.7515 12.376 15.8108 12.2049C15.8361 12.1318 15.8838 12.0729 15.9242 12.0324C15.9619 11.9939 16.0083 11.965 16.0595 11.9482C16.1156 11.9308 16.1742 11.9224 16.2329 11.9232C16.2816 11.9232 16.3294 11.9291 16.3658 11.9366C16.4158 11.9473 16.4353 11.953 16.4484 11.9568C16.5011 11.9729 16.5081 11.9573 16.5185 11.9319L16.642 11.5925C16.6547 11.556 16.6238 11.5406 16.6123 11.5361ZM9.39185 15.0316C9.39185 15.0586 9.37258 15.0807 9.34553 15.0807H8.91695C8.88981 15.0807 8.87054 15.0586 8.87054 15.0316V11.5821C8.87054 11.5552 8.88981 11.5334 8.91695 11.5334H9.34553C9.37258 11.5334 9.39185 11.5552 9.39185 11.5821V15.0316Z" fill="#FFFFFE"/>
</g>
</svg>
