<svg width="28" height="28" viewBox="0 0 28 28" fill="none" xmlns="http://www.w3.org/2000/svg">
<path d="M7.23559 17.0781C7.23559 18.4273 6.13353 19.5293 4.78446 19.5293C3.43538 19.5293 2.33331 18.4273 2.33331 17.0781C2.33331 15.7291 3.43538 14.627 4.78446 14.627H7.23559V17.0781Z" fill="#E01E5A"/>
<path d="M8.47064 17.0781C8.47064 15.7291 9.5727 14.627 10.9218 14.627C12.2708 14.627 13.3729 15.7291 13.3729 17.0781V23.2155C13.3729 24.5646 12.2708 25.6667 10.9218 25.6667C9.5727 25.6667 8.47064 24.5646 8.47064 23.2155V17.0781Z" fill="#E01E5A"/>
<path d="M10.9218 7.23559C9.5727 7.23559 8.47064 6.13353 8.47064 4.78446C8.47064 3.43538 9.5727 2.33331 10.9218 2.33331C12.2708 2.33331 13.3729 3.43538 13.3729 4.78446V7.23559H10.9218Z" fill="#36C5F0"/>
<path d="M10.9218 8.47064C12.2709 8.47064 13.3729 9.5727 13.3729 10.9218C13.3729 12.2708 12.2709 13.3729 10.9218 13.3729H4.78444C3.43537 13.3729 2.33331 12.2708 2.33331 10.9218C2.33331 9.5727 3.43537 8.47064 4.78444 8.47064H10.9218Z" fill="#36C5F0"/>
<path d="M20.7643 10.9218C20.7643 9.5727 21.8664 8.47064 23.2154 8.47064C24.5645 8.47064 25.6666 9.5727 25.6666 10.9218C25.6666 12.2708 24.5645 13.3729 23.2154 13.3729H20.7643V10.9218Z" fill="#2EB67D"/>
<path d="M19.5293 10.9218C19.5293 12.2709 18.4273 13.3729 17.0781 13.3729C15.7291 13.3729 14.627 12.2709 14.627 10.9218V4.78444C14.627 3.43537 15.7291 2.33331 17.0781 2.33331C18.4273 2.33331 19.5293 3.43537 19.5293 4.78444V10.9218Z" fill="#2EB67D"/>
<path d="M17.0781 20.7643C18.4273 20.7643 19.5293 21.8664 19.5293 23.2154C19.5293 24.5645 18.4273 25.6666 17.0781 25.6666C15.7291 25.6666 14.627 24.5645 14.627 23.2154V20.7643H17.0781Z" fill="#ECB22E"/>
<path d="M17.0781 19.5293C15.7291 19.5293 14.627 18.4273 14.627 17.0781C14.627 15.7291 15.7291 14.627 17.0781 14.627H23.2155C24.5646 14.627 25.6667 15.7291 25.6667 17.0781C25.6667 18.4273 24.5646 19.5293 23.2155 19.5293H17.0781Z" fill="#ECB22E"/>
</svg>
