<svg width="28" height="28" viewBox="0 0 28 28" fill="none" xmlns="http://www.w3.org/2000/svg">
<path d="M13.149 9.3537V22.4117H2.33331L13.149 9.3537Z" fill="#03363D"/>
<path d="M13.149 4.66669C13.149 6.10094 12.5793 7.47645 11.5651 8.49062C10.5509 9.5048 9.17543 10.0745 7.74117 10.0745C6.30692 10.0745 4.93141 9.5048 3.91724 8.49062C2.90307 7.47645 2.33331 6.10094 2.33331 4.66669H13.149Z" fill="#03363D"/>
<path d="M14.9309 22.4117C14.9309 20.9775 15.5006 19.602 16.5148 18.5878C17.529 17.5736 18.9045 17.0038 20.3388 17.0038C21.7729 17.0038 23.1486 17.5736 24.1626 18.5878C25.1768 19.602 25.7466 20.9775 25.7466 22.4117H14.9309Z" fill="#03363D"/>
<path d="M14.9309 17.7247V4.66669H25.7478L14.9309 17.7247Z" fill="#03363D"/>
</svg>
