<svg width="20" height="20" viewBox="0 0 20 20" fill="none" xmlns="http://www.w3.org/2000/svg">
<path fill-rule="evenodd" clip-rule="evenodd" d="M13.875 9.74225C13.7092 9.74225 13.5503 9.8081 13.4331 9.92531C13.3158 10.0425 13.25 10.2015 13.25 10.3672V13.4922H10.125C9.95924 13.4922 9.80027 13.5581 9.68306 13.6753C9.56585 13.7925 9.5 13.9515 9.5 14.1172C9.5 14.283 9.56585 14.442 9.68306 14.5592C9.80027 14.6764 9.95924 14.7422 10.125 14.7422H13.25V17.8672C13.25 18.033 13.3158 18.192 13.4331 18.3092C13.5503 18.4264 13.7092 18.4922 13.875 18.4922C14.0408 18.4922 14.1997 18.4264 14.3169 18.3092C14.4342 18.192 14.5 18.033 14.5 17.8672V14.7422H17.625C17.7908 14.7422 17.9497 14.6764 18.0669 14.5592C18.1842 14.442 18.25 14.283 18.25 14.1172C18.25 13.9515 18.1842 13.7925 18.0669 13.6753C17.9497 13.5581 17.7908 13.4922 17.625 13.4922H14.5V10.3672C14.5 10.2015 14.4342 10.0425 14.3169 9.92531C14.1997 9.8081 14.0408 9.74225 13.875 9.74225Z" fill="black"/>
<path fill-rule="evenodd" clip-rule="evenodd" d="M12 4.74225C12.0012 5.30974 11.8735 5.8701 11.6267 6.3811C11.3799 6.8921 11.0203 7.34041 10.575 7.69225C11.3234 7.99175 12.0068 8.43319 12.5875 8.99225C12.2556 9.3085 12.051 9.73541 12.0125 10.1923C11.3453 9.41942 10.4569 8.86998 9.46744 8.61816C8.47797 8.36634 7.43504 8.42427 6.47954 8.78411C5.52404 9.14396 4.702 9.78839 4.12445 10.6304C3.5469 11.4723 3.24168 12.4713 3.25 13.4923C3.25 13.8238 3.3817 14.1417 3.61612 14.3761C3.85054 14.6106 4.16848 14.7423 4.5 14.7423H8.3625C8.6125 15.4673 9.3125 15.9923 10.125 15.9923H4.5C3.83696 15.9923 3.20107 15.7289 2.73223 15.26C2.26339 14.7912 2 14.1553 2 13.4923C2.00029 12.2441 2.3743 11.0246 3.07384 9.99087C3.77338 8.95716 4.76641 8.15657 5.925 7.69225C5.42688 7.29863 5.03684 6.78498 4.79145 6.19945C4.54606 5.61391 4.45335 4.97566 4.522 4.34451C4.59065 3.71335 4.81841 3.10996 5.18395 2.59088C5.54949 2.0718 6.04084 1.65401 6.61194 1.37669C7.18304 1.09936 7.8152 0.971573 8.44918 1.00529C9.08316 1.03901 9.6982 1.23314 10.2367 1.56948C10.7751 1.90582 11.2194 2.37337 11.5278 2.9283C11.8362 3.48323 11.9987 4.10738 12 4.74225ZM12 14.7423H13.25V15.6548C13.6297 15.4355 13.945 15.1204 14.1644 14.7408C14.3838 14.3612 14.4996 13.9307 14.5 13.4923C14.5 12.1798 14.1 10.9673 13.4 9.95475C13.3018 10.0696 13.2485 10.2161 13.25 10.3673V13.4923C13.25 13.8238 13.1183 14.1417 12.8839 14.3761C12.6495 14.6106 12.3315 14.7423 12 14.7423ZM10.75 4.74225C10.75 5.40529 10.4866 6.04118 10.0178 6.51002C9.54893 6.97886 8.91304 7.24225 8.25 7.24225C7.58696 7.24225 6.95107 6.97886 6.48223 6.51002C6.01339 6.04118 5.75 5.40529 5.75 4.74225C5.75 4.07921 6.01339 3.44332 6.48223 2.97448C6.95107 2.50564 7.58696 2.24225 8.25 2.24225C8.91304 2.24225 9.54893 2.50564 10.0178 2.97448C10.4866 3.44332 10.75 4.07921 10.75 4.74225Z" fill="black"/>
</svg>
