<svg width="42" height="42" viewBox="0 0 42 42" fill="none" xmlns="http://www.w3.org/2000/svg">
<path fill-rule="evenodd" clip-rule="evenodd" d="M21 3.9375C17.3756 3.9375 14.4375 6.87564 14.4375 10.5V13.125H27.5625V10.5C27.5625 6.87564 24.6244 3.9375 21 3.9375ZM30.1875 13.2904V10.5C30.1875 5.42588 26.0741 1.3125 21 1.3125C15.9259 1.3125 11.8125 5.42588 11.8125 10.5V13.2904C9.54815 13.8732 7.875 15.9287 7.875 18.375V34.125C7.875 37.0246 10.2255 39.375 13.125 39.375H28.875C31.7746 39.375 34.125 37.0246 34.125 34.125V18.375C34.125 15.9287 32.4518 13.8732 30.1875 13.2904ZM28.875 15.75H27.5625H14.4375H13.125C11.6753 15.75 10.5 16.9253 10.5 18.375V34.125C10.5 35.5748 11.6753 36.75 13.125 36.75H28.875C30.3248 36.75 31.5 35.5748 31.5 34.125V18.375C31.5 16.9253 30.3248 15.75 28.875 15.75ZM22.3125 25.8988C23.0971 25.4449 23.625 24.5966 23.625 23.625C23.625 22.1753 22.4497 21 21 21C19.5503 21 18.375 22.1753 18.375 23.625C18.375 24.5966 18.9029 25.4449 19.6875 25.8988V28.5377C19.6875 29.2627 20.2751 29.8502 21 29.8502C21.7249 29.8502 22.3125 29.2627 22.3125 28.5377V25.8988Z" fill="#5C90FF"/>
</svg>
