<svg width="20" height="20" viewBox="0 0 20 20" fill="none" xmlns="http://www.w3.org/2000/svg">
<path fill-rule="evenodd" clip-rule="evenodd" d="M11.9561 2.84375C12.1436 2.93125 12.2561 3.13125 12.2561 3.34375C12.2561 3.80625 11.6936 4.09375 11.2561 3.88125C10.3032 3.41169 9.24635 3.19274 8.18535 3.2451C7.12435 3.29745 6.0942 3.61937 5.19218 4.18046C4.29016 4.74155 3.54604 5.5233 3.03008 6.45187C2.51413 7.38045 2.24337 8.42521 2.24337 9.4875C2.24337 10.5498 2.51413 11.5946 3.03008 12.5231C3.54604 13.4517 4.29016 14.2334 5.19218 14.7945C6.0942 15.3556 7.12435 15.6776 8.18535 15.7299C9.24635 15.7823 10.3032 15.5633 11.2561 15.0938C11.6936 14.8813 12.2561 15.1688 12.2561 15.6563C12.2561 15.8563 12.1311 16.0438 11.9561 16.1563C10.8129 16.7498 9.53604 17.039 8.24865 16.9958C6.96125 16.9526 5.70667 16.5786 4.6058 15.9098C3.50493 15.241 2.59487 14.2999 1.96332 13.1772C1.33176 12.0545 1 10.7881 1 9.5C1 8.21188 1.33176 6.94548 1.96332 5.82281C2.59487 4.70014 3.50493 3.75905 4.6058 3.09023C5.70667 2.4214 6.96125 2.04738 8.24865 2.00421C9.53604 1.96104 10.8129 2.25018 11.9561 2.84375ZM15.1811 11.8438C15.4311 12.0938 15.8311 12.0938 16.0686 11.8438L17.8311 10.0813C17.8896 10.0231 17.9361 9.95402 17.9679 9.87786C17.9996 9.8017 18.0159 9.72001 18.0159 9.6375C18.0159 9.55499 17.9996 9.4733 17.9679 9.39714C17.9361 9.32098 17.8896 9.25185 17.8311 9.19375L16.0811 7.41875C16.0228 7.35966 15.9534 7.31262 15.877 7.28032C15.8005 7.24803 15.7185 7.2311 15.6355 7.23052C15.5525 7.22994 15.4702 7.24572 15.3933 7.27694C15.3164 7.30816 15.2464 7.35423 15.1873 7.4125C15.1282 7.47077 15.0812 7.54012 15.0489 7.61657C15.0166 7.69302 14.9997 7.77509 14.9991 7.85808C14.9979 8.02569 15.0634 8.1869 15.1811 8.30625L15.7436 8.86875H6.61856C6.4528 8.86875 6.29383 8.9346 6.17662 9.05181C6.05941 9.16902 5.99356 9.32799 5.99356 9.49375C5.99356 9.65951 6.05941 9.81848 6.17662 9.93569C6.29383 10.0529 6.4528 10.1188 6.61856 10.1188H16.0311L15.1811 10.9563C15.0665 11.0731 15.0024 11.2302 15.0024 11.3938C15.0024 11.5573 15.0665 11.7144 15.1811 11.8313V11.8438Z" fill="black"/>
</svg>
