<svg width="20" height="20" viewBox="0 0 20 20" fill="none" xmlns="http://www.w3.org/2000/svg">
<path d="M10.5105 18.3869H9.28193C9.09844 18.3868 8.92012 18.3261 8.77457 18.2144C8.62902 18.1027 8.52435 17.9461 8.47677 17.7689L7.74532 15.0916L5.38276 16.4477C5.22436 16.538 5.04082 16.5741 4.86002 16.5506C4.67922 16.5271 4.51104 16.4452 4.38104 16.3173L3.50689 15.4488C3.37671 15.3192 3.29292 15.1502 3.26849 14.9681C3.24406 14.7859 3.28035 14.6009 3.37175 14.4414L4.75999 12.0364L4.75432 12.0212L2.12054 11.3153C1.94341 11.2679 1.78685 11.1634 1.67512 11.018C1.56338 10.8726 1.50271 10.6945 1.5025 10.5111V9.28068C1.50281 9.09772 1.5633 8.91995 1.67465 8.77478C1.78601 8.62962 1.94203 8.52512 2.11865 8.47741L4.80157 7.74313L3.44169 5.37868C3.35113 5.21983 3.31513 5.03568 3.3392 4.85442C3.36326 4.67316 3.44607 4.50479 3.57493 4.37507L4.44246 3.50754C4.572 3.37874 4.74015 3.29589 4.92121 3.27166C5.10227 3.24743 5.28628 3.28314 5.44513 3.37334L7.85683 4.7578H7.86817L8.57222 2.12119C8.6193 1.9438 8.72367 1.78694 8.86911 1.675C9.01455 1.56305 9.1929 1.50231 9.37643 1.5022H10.605C10.7886 1.50242 10.967 1.56319 11.1126 1.6751C11.2581 1.78701 11.3627 1.9438 11.4101 2.12119L12.1302 4.80316L14.5013 3.44138C14.6595 3.35117 14.8429 3.31508 15.0236 3.33862C15.2042 3.36216 15.3722 3.44403 15.5021 3.5718L16.3772 4.44027C16.5075 4.57008 16.5913 4.73937 16.6154 4.92176C16.6395 5.10416 16.6026 5.2894 16.5104 5.44861L15.125 7.84141L15.1326 7.8622L17.7654 8.56719C17.9423 8.61491 18.0985 8.71951 18.2101 8.86485C18.3216 9.01019 18.3822 9.1882 18.3825 9.3714V10.5999C18.3823 10.7834 18.3217 10.9617 18.21 11.1073C18.0982 11.2528 17.9417 11.3575 17.7645 11.4051L15.0834 12.1365L16.4433 14.5038C16.5347 14.6626 16.5712 14.8471 16.5471 15.0287C16.523 15.2103 16.4397 15.3789 16.3101 15.5084L15.4435 16.375C15.3134 16.5036 15.1449 16.5863 14.9636 16.6103C14.7822 16.6344 14.598 16.5985 14.4389 16.5082L12.0395 15.1266L12.0225 15.1398L11.3185 17.7717C11.2699 17.9487 11.1645 18.1048 11.0185 18.216C10.8725 18.3272 10.694 18.3872 10.5105 18.3869ZM9.36698 17.4419H10.4245L11.1219 14.8374C11.156 14.7119 11.2188 14.596 11.3054 14.4989C11.392 14.4018 11.5 14.3262 11.6209 14.278L11.7475 14.2288C11.8635 14.1829 11.9884 14.1639 12.1128 14.1732C12.2372 14.1826 12.3579 14.22 12.4657 14.2827L14.8377 15.6482L15.5833 14.9026L14.2386 12.5609C14.1748 12.4498 14.1376 12.3254 14.1297 12.1976C14.1218 12.0698 14.1436 11.9418 14.1932 11.8237L14.2424 11.7056C14.2911 11.5883 14.3663 11.4837 14.462 11.4002C14.5577 11.3166 14.6714 11.2562 14.7942 11.2236L17.4403 10.5158V9.4574L14.8368 8.76092C14.711 8.72691 14.595 8.664 14.4978 8.57721C14.4007 8.49042 14.3252 8.38214 14.2773 8.261L14.2282 8.13626C14.1824 8.01974 14.1635 7.89441 14.1729 7.76959C14.1822 7.64476 14.2195 7.52363 14.282 7.4152L15.6514 5.04509L14.8954 4.29852L12.5517 5.64518C12.4419 5.70855 12.3191 5.74593 12.1926 5.75445C12.0662 5.76297 11.9394 5.7424 11.8221 5.69432L11.7135 5.6499C11.5948 5.6009 11.489 5.52532 11.4041 5.42898C11.3192 5.33265 11.2576 5.21813 11.2239 5.09423L10.5171 2.4425H9.46337L8.76594 5.05265C8.73218 5.18082 8.66836 5.29911 8.57978 5.39771C8.49121 5.49631 8.38041 5.5724 8.25658 5.61966L8.14318 5.66219C8.02828 5.70655 7.90491 5.72464 7.78211 5.71516C7.65931 5.70568 7.54019 5.66885 7.43346 5.60738L5.05011 4.23615L4.30449 4.98177L5.64831 7.32165C5.71217 7.43361 5.74932 7.55881 5.75686 7.68748C5.7644 7.81616 5.74213 7.94483 5.69178 8.06349L5.64359 8.17689C5.59406 8.29191 5.51909 8.39419 5.42431 8.47603C5.32953 8.55788 5.21742 8.61716 5.09642 8.6494L2.45036 9.36573V10.4251L5.05578 11.1225C5.18084 11.1565 5.29633 11.219 5.39322 11.3051C5.49011 11.3912 5.56577 11.4985 5.61429 11.6187L5.65965 11.733C5.70729 11.8502 5.72737 11.9767 5.71836 12.1029C5.70935 12.2291 5.67148 12.3515 5.60768 12.4607L4.23362 14.8384L4.98963 15.5859L7.32384 14.2449C7.43592 14.1803 7.56153 14.1428 7.69067 14.1355C7.8198 14.1281 7.94887 14.151 8.06757 14.2024L8.16775 14.2439C8.28869 14.2914 8.39673 14.3667 8.4831 14.4637C8.56947 14.5608 8.63173 14.6768 8.66483 14.8024L9.36698 17.4419Z" fill="black"/>
<path d="M7.81714 15.1228H7.8247M7.67539 15.0652H7.682M10.5105 18.3869H9.28193C9.09844 18.3868 8.92012 18.3261 8.77457 18.2144C8.62902 18.1027 8.52435 17.9461 8.47677 17.7689L7.74532 15.0916L5.38276 16.4477C5.22436 16.538 5.04082 16.5741 4.86002 16.5506C4.67922 16.5271 4.51104 16.4452 4.38104 16.3173L3.50689 15.4488C3.37671 15.3192 3.29292 15.1502 3.26849 14.9681C3.24406 14.7859 3.28035 14.6009 3.37175 14.4414L4.75999 12.0364L4.75432 12.0212L2.12054 11.3153C1.94341 11.2679 1.78685 11.1634 1.67512 11.018C1.56338 10.8726 1.50271 10.6945 1.5025 10.5111V9.28068C1.50281 9.09772 1.5633 8.91995 1.67465 8.77478C1.78601 8.62962 1.94203 8.52512 2.11865 8.47741L4.80157 7.74313L3.44169 5.37868C3.35113 5.21983 3.31513 5.03568 3.3392 4.85442C3.36326 4.67316 3.44607 4.50479 3.57493 4.37507L4.44246 3.50754C4.572 3.37874 4.74015 3.29589 4.92121 3.27166C5.10227 3.24743 5.28628 3.28314 5.44513 3.37334L7.85683 4.7578H7.86817L8.57222 2.12119C8.6193 1.9438 8.72367 1.78694 8.86911 1.675C9.01455 1.56305 9.1929 1.50231 9.37643 1.5022H10.605C10.7886 1.50242 10.967 1.56319 11.1126 1.6751C11.2581 1.78701 11.3627 1.9438 11.4101 2.12119L12.1302 4.80316L14.5013 3.44138C14.6595 3.35117 14.8429 3.31508 15.0236 3.33862C15.2042 3.36216 15.3722 3.44403 15.5021 3.5718L16.3772 4.44027C16.5075 4.57008 16.5913 4.73937 16.6154 4.92176C16.6395 5.10416 16.6026 5.2894 16.5104 5.44861L15.125 7.84141L15.1326 7.8622L17.7654 8.56719C17.9423 8.61491 18.0985 8.71951 18.2101 8.86485C18.3216 9.01019 18.3822 9.1882 18.3825 9.3714V10.5999C18.3823 10.7834 18.3217 10.9617 18.21 11.1073C18.0982 11.2528 17.9417 11.3575 17.7645 11.4051L15.0834 12.1365L16.4433 14.5038C16.5347 14.6626 16.5712 14.8471 16.5471 15.0287C16.523 15.2103 16.4397 15.3789 16.3101 15.5084L15.4435 16.375C15.3134 16.5036 15.1449 16.5863 14.9636 16.6103C14.7822 16.6344 14.598 16.5985 14.4389 16.5082L12.0395 15.1266L12.0225 15.1398L11.3185 17.7717C11.2699 17.9487 11.1645 18.1048 11.0185 18.216C10.8725 18.3272 10.694 18.3872 10.5105 18.3869ZM9.36698 17.4419H10.4245L11.1219 14.8374C11.156 14.7119 11.2188 14.596 11.3054 14.4989C11.392 14.4018 11.5 14.3262 11.6209 14.278L11.7475 14.2288C11.8635 14.1829 11.9884 14.1639 12.1128 14.1732C12.2372 14.1826 12.3579 14.22 12.4657 14.2827L14.8377 15.6482L15.5833 14.9026L14.2386 12.5609C14.1748 12.4498 14.1376 12.3254 14.1297 12.1976C14.1218 12.0698 14.1436 11.9418 14.1932 11.8237L14.2424 11.7056C14.2911 11.5883 14.3663 11.4837 14.462 11.4002C14.5577 11.3166 14.6714 11.2562 14.7942 11.2236L17.4403 10.5158V9.4574L14.8368 8.76092C14.711 8.72691 14.595 8.664 14.4978 8.57721C14.4007 8.49042 14.3252 8.38214 14.2773 8.261L14.2282 8.13626C14.1824 8.01974 14.1635 7.89441 14.1729 7.76959C14.1822 7.64476 14.2195 7.52363 14.282 7.4152L15.6514 5.04509L14.8954 4.29852L12.5517 5.64518C12.4419 5.70855 12.3191 5.74593 12.1926 5.75445C12.0662 5.76297 11.9394 5.7424 11.8221 5.69432L11.7135 5.6499C11.5948 5.6009 11.489 5.52532 11.4041 5.42898C11.3192 5.33265 11.2576 5.21813 11.2239 5.09423L10.5171 2.4425H9.46337L8.76594 5.05265C8.73218 5.18082 8.66836 5.29911 8.57978 5.39771C8.49121 5.49631 8.38041 5.5724 8.25658 5.61966L8.14318 5.66219C8.02828 5.70655 7.90491 5.72464 7.78211 5.71516C7.65931 5.70568 7.54019 5.66885 7.43346 5.60738L5.05011 4.23615L4.30449 4.98177L5.64831 7.32165C5.71217 7.43361 5.74932 7.55881 5.75686 7.68748C5.7644 7.81616 5.74213 7.94483 5.69178 8.06349L5.64359 8.17689C5.59406 8.29191 5.51909 8.39419 5.42431 8.47603C5.32953 8.55788 5.21742 8.61716 5.09642 8.6494L2.45036 9.36573V10.4251L5.05578 11.1225C5.18084 11.1565 5.29633 11.219 5.39322 11.3051C5.49011 11.3912 5.56577 11.4985 5.61429 11.6187L5.65965 11.733C5.70729 11.8502 5.72737 11.9767 5.71836 12.1029C5.70935 12.2291 5.67148 12.3515 5.60768 12.4607L4.23362 14.8384L4.98963 15.5859L7.32384 14.2449C7.43592 14.1803 7.56153 14.1428 7.69067 14.1355C7.8198 14.1281 7.94887 14.151 8.06757 14.2024L8.16775 14.2439C8.28869 14.2914 8.39673 14.3667 8.4831 14.4637C8.56947 14.5608 8.63173 14.6768 8.66483 14.8024L9.36698 17.4419Z" stroke="black" stroke-width="0.340208"/>
<path d="M9.94345 12.7773C9.38272 12.7773 8.83459 12.611 8.36837 12.2995C7.90214 11.9879 7.53876 11.5452 7.32418 11.0271C7.1096 10.5091 7.05346 9.93904 7.16285 9.38909C7.27224 8.83914 7.54226 8.33398 7.93875 7.93749C8.33524 7.541 8.8404 7.27098 9.39035 7.16159C9.9403 7.0522 10.5103 7.10835 11.0284 7.32292C11.5464 7.5375 11.9892 7.90088 12.3007 8.36711C12.6122 8.83333 12.7785 9.38146 12.7785 9.94219C12.7785 10.6941 12.4798 11.4152 11.9481 11.9469C11.4165 12.4786 10.6954 12.7773 9.94345 12.7773ZM9.94345 8.05214C9.56963 8.05214 9.20421 8.16299 8.89339 8.37067C8.58258 8.57835 8.34032 8.87354 8.19727 9.2189C8.05422 9.56426 8.01679 9.94428 8.08972 10.3109C8.16264 10.6775 8.34265 11.0143 8.60698 11.2786C8.87131 11.543 9.20808 11.723 9.57472 11.7959C9.94135 11.8688 10.3214 11.8314 10.6667 11.6884C11.0121 11.5453 11.3073 11.3031 11.515 10.9922C11.7226 10.6814 11.8335 10.316 11.8335 9.94219C11.8335 9.44091 11.6344 8.96017 11.2799 8.60572C10.9255 8.25127 10.4447 8.05214 9.94345 8.05214Z" fill="black" stroke="black" stroke-width="0.340208"/>
</svg>
