<svg width="20" height="20" viewBox="0 0 20 20" fill="none" xmlns="http://www.w3.org/2000/svg">
<path fill-rule="evenodd" clip-rule="evenodd" d="M4.75 2.625C4.75 2.45924 4.81585 2.30027 4.93306 2.18306C5.05027 2.06585 5.20924 2 5.375 2C5.54076 2 5.69973 2.06585 5.81694 2.18306C5.93415 2.30027 6 2.45924 6 2.625V3.25H13.5V2.625C13.5 2.45924 13.5658 2.30027 13.6831 2.18306C13.8003 2.06585 13.9592 2 14.125 2C14.2908 2 14.4497 2.06585 14.5669 2.18306C14.6842 2.30027 14.75 2.45924 14.75 2.625V3.25H16C16.663 3.25 17.2989 3.51339 17.7678 3.98223C18.2366 4.45107 18.5 5.08696 18.5 5.75V15.75C18.5 16.413 18.2366 17.0489 17.7678 17.5178C17.2989 17.9866 16.663 18.25 16 18.25H3.5C2.83696 18.25 2.20107 17.9866 1.73223 17.5178C1.26339 17.0489 1 16.413 1 15.75V5.75C1 4.375 2.125 3.25 3.5 3.25H4.75V2.625ZM13.5 4.5V5.125C13.5 5.29076 13.5658 5.44973 13.6831 5.56694C13.8003 5.68415 13.9592 5.75 14.125 5.75C14.2908 5.75 14.4497 5.68415 14.5669 5.56694C14.6842 5.44973 14.75 5.29076 14.75 5.125V4.5H16C16.3315 4.5 16.6495 4.6317 16.8839 4.86612C17.1183 5.10054 17.25 5.41848 17.25 5.75V7H2.25V5.75C2.25 5.41848 2.3817 5.10054 2.61612 4.86612C2.85054 4.6317 3.16848 4.5 3.5 4.5H4.75V5.125C4.75 5.29076 4.81585 5.44973 4.93306 5.56694C5.05027 5.68415 5.20924 5.75 5.375 5.75C5.54076 5.75 5.69973 5.68415 5.81694 5.56694C5.93415 5.44973 6 5.29076 6 5.125V4.5H13.5ZM2.25 8.25V15.75C2.25 16.0815 2.3817 16.3995 2.61612 16.6339C2.85054 16.8683 3.16848 17 3.5 17H16C16.3315 17 16.6495 16.8683 16.8839 16.6339C17.1183 16.3995 17.25 16.0815 17.25 15.75V8.25H2.25ZM6 11.375C6 11.5408 5.93415 11.6997 5.81694 11.8169C5.69973 11.9342 5.54076 12 5.375 12C5.20924 12 5.05027 11.9342 4.93306 11.8169C4.81585 11.6997 4.75 11.5408 4.75 11.375C4.75 11.2092 4.81585 11.0503 4.93306 10.9331C5.05027 10.8158 5.20924 10.75 5.375 10.75C5.54076 10.75 5.69973 10.8158 5.81694 10.9331C5.93415 11.0503 6 11.2092 6 11.375ZM9.75 12C9.91576 12 10.0747 11.9342 10.1919 11.8169C10.3092 11.6997 10.375 11.5408 10.375 11.375C10.375 11.2092 10.3092 11.0503 10.1919 10.9331C10.0747 10.8158 9.91576 10.75 9.75 10.75C9.58424 10.75 9.42527 10.8158 9.30806 10.9331C9.19085 11.0503 9.125 11.2092 9.125 11.375C9.125 11.5408 9.19085 11.6997 9.30806 11.8169C9.42527 11.9342 9.58424 12 9.75 12ZM14.75 11.375C14.75 11.5408 14.6842 11.6997 14.5669 11.8169C14.4497 11.9342 14.2908 12 14.125 12C13.9592 12 13.8003 11.9342 13.6831 11.8169C13.5658 11.6997 13.5 11.5408 13.5 11.375C13.5 11.2092 13.5658 11.0503 13.6831 10.9331C13.8003 10.8158 13.9592 10.75 14.125 10.75C14.2908 10.75 14.4497 10.8158 14.5669 10.9331C14.6842 11.0503 14.75 11.2092 14.75 11.375ZM5.375 14.5C5.54076 14.5 5.69973 14.4342 5.81694 14.3169C5.93415 14.1997 6 14.0408 6 13.875C6 13.7092 5.93415 13.5503 5.81694 13.4331C5.69973 13.3158 5.54076 13.25 5.375 13.25C5.20924 13.25 5.05027 13.3158 4.93306 13.4331C4.81585 13.5503 4.75 13.7092 4.75 13.875C4.75 14.0408 4.81585 14.1997 4.93306 14.3169C5.05027 14.4342 5.20924 14.5 5.375 14.5ZM10.375 13.875C10.375 14.0408 10.3092 14.1997 10.1919 14.3169C10.0747 14.4342 9.91576 14.5 9.75 14.5C9.58424 14.5 9.42527 14.4342 9.30806 14.3169C9.19085 14.1997 9.125 14.0408 9.125 13.875C9.125 13.7092 9.19085 13.5503 9.30806 13.4331C9.42527 13.3158 9.58424 13.25 9.75 13.25C9.91576 13.25 10.0747 13.3158 10.1919 13.4331C10.3092 13.5503 10.375 13.7092 10.375 13.875ZM14.125 14.5C14.2908 14.5 14.4497 14.4342 14.5669 14.3169C14.6842 14.1997 14.75 14.0408 14.75 13.875C14.75 13.7092 14.6842 13.5503 14.5669 13.4331C14.4497 13.3158 14.2908 13.25 14.125 13.25C13.9592 13.25 13.8003 13.3158 13.6831 13.4331C13.5658 13.5503 13.5 13.7092 13.5 13.875C13.5 14.0408 13.5658 14.1997 13.6831 14.3169C13.8003 14.4342 13.9592 14.5 14.125 14.5Z" fill="black"/>
</svg>
