<svg width="20" height="20" viewBox="0 0 20 20" fill="none" xmlns="http://www.w3.org/2000/svg">
<path fill-rule="evenodd" clip-rule="evenodd" d="M9.75 18.5C12.0706 18.5 14.2962 17.5781 15.9372 15.9372C17.5781 14.2962 18.5 12.0706 18.5 9.75C18.5 7.42936 17.5781 5.20376 15.9372 3.56282C14.2962 1.92187 12.0706 1 9.75 1C7.42936 1 5.20376 1.92187 3.56282 3.56282C1.92187 5.20376 1 7.42936 1 9.75C1 12.0706 1.92187 14.2962 3.56282 15.9372C5.20376 17.5781 7.42936 18.5 9.75 18.5ZM17.25 9.75C17.25 10.7349 17.056 11.7102 16.6791 12.6201C16.3022 13.5301 15.7497 14.3569 15.0533 15.0533C14.3569 15.7497 13.5301 16.3022 12.6201 16.6791C11.7102 17.056 10.7349 17.25 9.75 17.25C8.76509 17.25 7.78982 17.056 6.87987 16.6791C5.96993 16.3022 5.14314 15.7497 4.4467 15.0533C3.75026 14.3569 3.19781 13.5301 2.8209 12.6201C2.44399 11.7102 2.25 10.7349 2.25 9.75C2.25 7.76088 3.04018 5.85322 4.4467 4.4467C5.85322 3.04018 7.76088 2.25 9.75 2.25C11.7391 2.25 13.6468 3.04018 15.0533 4.4467C16.4598 5.85322 17.25 7.76088 17.25 9.75ZM10.1875 11.675H9V11.4375C9 10.1625 9.5 9.6875 10.35 9.025L10.8375 8.65C11.3375 8.2625 11.6 7.7875 11.6125 7.1C11.6125 6.1875 11.0125 5.475 9.8 5.475C8.425 5.475 7.875 6.3125 7.875 7.3875H6.575C6.575 5.7875 7.6125 4.3625 9.7875 4.3625C11.6625 4.3625 12.9125 5.4375 12.9125 7.075C12.9125 8.0625 12.5 8.8125 11.7875 9.3625L11.1625 9.8625C10.4875 10.3625 10.1875 10.6375 10.1875 11.4375V11.675ZM10.475 14.225C10.475 14.7625 10.1625 15.1375 9.6 15.1375C9.0125 15.1375 8.7125 14.7625 8.7125 14.225C8.7125 13.7 9.0125 13.325 9.5875 13.325C10.1625 13.325 10.475 13.7 10.475 14.225Z" fill="black"/>
</svg>
